<?xml version="1.0"?>
<svg xmlns="http://www.w3.org/2000/svg" xmlns:xlink="http://www.w3.org/1999/xlink" version="1.1" xml:space="preserve">
  <defs>

    <symbol id="loader" width="100%" height="100%" viewBox="22 22 44 44">
      <circle cx="44" cy="44" r="20.2" fill="none" stroke="currentColor" stroke-width="4"></circle>
    </symbol>

    <symbol id="burger" width="100%" height="100%" viewBox="0 0 48 48">
      <path d="M41,14H7a2,2,0,0,1,0-4H41A2,2,0,0,1,41,14Z" fill="currentColor" />
      <path d="M41,26H7a2,2,0,0,1,0-4H41A2,2,0,0,1,41,26Z" fill="currentColor" />
      <path d="M41,38H7a2,2,0,0,1,0-4H41A2,2,0,0,1,41,38Z" fill="currentColor" />
    </symbol>

    <symbol id="close" width="100%" height="100%" viewBox="0 0 16 16">
      <path d="M1 15L15 1M1 1L15 15" stroke="currentColor" stroke-width="2" stroke-linecap="round" stroke-linejoin="round" />
    </symbol>

    <symbol id="chef" width="100%" height="100%" viewBox="0 0 40 40">
      <path d="M31.6667 29.9999H32.6667H31.6667ZM8.33337 24.3065H9.33337C9.33337 23.909 9.09797 23.5493 8.73375 23.3902L8.33337 24.3065ZM31.6667 24.3065L31.2663 23.3902C30.9021 23.5493 30.6667 23.909 30.6667 24.3065H31.6667ZM26.5 11.6666C26.5 12.2189 26.9478 12.6666 27.5 12.6666C28.0523 12.6666 28.5 12.2189 28.5 11.6666H26.5ZM11.5 11.6666C11.5 12.2189 11.9478 12.6666 12.5 12.6666C13.0523 12.6666 13.5 12.2189 13.5 11.6666H11.5ZM11.6667 7.33325C6.51205 7.33325 2.33337 11.5119 2.33337 16.6666H4.33337C4.33337 12.6165 7.61662 9.33325 11.6667 9.33325V7.33325ZM28.3334 9.33325C32.3835 9.33325 35.6667 12.6165 35.6667 16.6666H37.6667C37.6667 11.5119 33.488 7.33325 28.3334 7.33325V9.33325ZM25 35.6666H15V37.6666H25V35.6666ZM15 35.6666C13.4004 35.6666 12.3013 35.6645 11.4757 35.5535C10.6789 35.4463 10.2882 35.2546 10.0168 34.9832L8.60258 36.3974C9.3075 37.1023 10.1906 37.3987 11.2092 37.5356C12.1991 37.6687 13.457 37.6666 15 37.6666V35.6666ZM7.33337 29.9999C7.33337 31.543 7.33125 32.8009 7.46433 33.7907C7.60128 34.8093 7.89765 35.6925 8.60258 36.3974L10.0168 34.9832C9.74541 34.7118 9.55363 34.3211 9.4465 33.5242C9.3355 32.6987 9.33337 31.5995 9.33337 29.9999H7.33337ZM30.6667 29.9999C30.6667 31.5995 30.6646 32.6987 30.5536 33.5242C30.4465 34.3211 30.2547 34.7118 29.9833 34.9832L31.3975 36.3974C32.1024 35.6925 32.3988 34.8093 32.5358 33.7907C32.6688 32.8009 32.6667 31.543 32.6667 29.9999H30.6667ZM25 37.6666C26.5431 37.6666 27.801 37.6687 28.7909 37.5356C29.8095 37.3987 30.6926 37.1023 31.3975 36.3974L29.9833 34.9832C29.7119 35.2546 29.3212 35.4463 28.5244 35.5535C27.6988 35.6645 26.5997 35.6666 25 35.6666V37.6666ZM11.6667 9.33325C12.0351 9.33325 12.3966 9.36034 12.7494 9.41249L13.0419 7.43398C12.5926 7.36757 12.1333 7.33325 11.6667 7.33325V9.33325ZM20 2.33325C16.2595 2.33325 13.0858 4.74873 11.9486 8.10208L13.8427 8.74439C14.713 6.17796 17.1424 4.33325 20 4.33325V2.33325ZM11.9486 8.10208C11.6575 8.96056 11.5 9.87955 11.5 10.8333H13.5C13.5 10.1008 13.6208 9.39869 13.8427 8.74439L11.9486 8.10208ZM28.3334 7.33325C27.8667 7.33325 27.4075 7.36757 26.9582 7.43398L27.2507 9.41249C27.6035 9.36034 27.9649 9.33325 28.3334 9.33325V7.33325ZM20 4.33325C22.8577 4.33325 25.2871 6.17796 26.1574 8.74439L28.0515 8.10208C26.9143 4.74873 23.7405 2.33325 20 2.33325V4.33325ZM26.1574 8.74439C26.3793 9.39869 26.5 10.1008 26.5 10.8333H28.5C28.5 9.87955 28.3426 8.96055 28.0515 8.10208L26.1574 8.74439ZM9.33337 29.9999V24.3065H7.33337V29.9999H9.33337ZM8.73375 23.3902C6.14166 22.2576 4.33337 19.6722 4.33337 16.6666H2.33337C2.33337 20.4954 4.63874 23.7835 7.933 25.2229L8.73375 23.3902ZM30.6667 24.3065L30.6667 29.9999H32.6667L32.6667 24.3065L30.6667 24.3065ZM35.6667 16.6666C35.6667 19.6722 33.8584 22.2576 31.2663 23.3902L32.0671 25.2229C35.3613 23.7835 37.6667 20.4954 37.6667 16.6666H35.6667ZM26.5 10.8333V11.6666H28.5V10.8333H26.5ZM11.5 10.8333V11.6666H13.5V10.8333H11.5Z" fill="currentColor" />
      <path d="M18.4048 22.7818L17.8132 23.5881H17.8132L18.4048 22.7818ZM20 16.6581L19.3084 17.3804C19.6951 17.7507 20.3049 17.7507 20.6916 17.3804L20 16.6581ZM21.5952 22.7818L21.0037 21.9756L21.5952 22.7818ZM20 23.5518L20 22.5518H20L20 23.5518ZM18.9963 21.9756C18.2927 21.4593 17.5085 20.8083 16.91 20.1163C16.2854 19.394 16 18.7839 16 18.3337H14C14 19.5243 14.6853 20.6014 15.3973 21.4245C16.1353 22.2779 17.0535 23.0306 17.8132 23.5881L18.9963 21.9756ZM16 18.3337C16 17.2868 16.4876 16.7611 16.9871 16.586C17.5146 16.4011 18.3827 16.494 19.3084 17.3804L20.6916 15.9358C19.3674 14.6679 17.7355 14.2043 16.3255 14.6986C14.8874 15.2027 14 16.592 14 18.3337H16ZM22.1868 23.5881C22.9465 23.0306 23.8647 22.2779 24.6027 21.4246C25.3147 20.6014 26 19.5243 26 18.3337H24C24 18.7839 23.7146 19.394 23.09 20.1163C22.4915 20.8083 21.7073 21.4593 21.0037 21.9756L22.1868 23.5881ZM26 18.3337C26 16.5919 25.1126 15.2027 23.6745 14.6986C22.2645 14.2043 20.6326 14.6679 19.3084 15.9358L20.6916 17.3804C21.6173 16.494 22.4854 16.4011 23.0129 16.586C23.5124 16.7611 24 17.2868 24 18.3337H26ZM17.8132 23.5881C18.4446 24.0514 19.0663 24.5518 20 24.5518L20 22.5518C19.9128 22.5518 19.848 22.5389 19.7268 22.4749C19.5636 22.3888 19.3679 22.2482 18.9963 21.9756L17.8132 23.5881ZM21.0037 21.9756C20.6321 22.2482 20.4364 22.3888 20.2732 22.4749C20.152 22.5389 20.0872 22.5518 20 22.5518L20 24.5518C20.9337 24.5518 21.5554 24.0514 22.1868 23.5881L21.0037 21.9756Z" fill="currentColor" />
      <path d="M8.33337 30H31.6667" fill="transparent" stroke="currentColor" stroke-width="2" stroke-linecap="round" stroke-linejoin="round" />
    </symbol>

    <symbol id="water" width="100%" height="100%" viewBox="0 0 40 40">
      <path fill-rule="evenodd" clip-rule="evenodd" d="M7.63579 10.0175C8.78708 8.32473 11.1918 8.38789 12.4057 9.8492C14.0423 11.8195 16.3496 13.75 19.9999 13.75C23.7129 13.75 25.9848 12.2002 27.5309 10.2564C28.7332 8.74481 31.2957 8.50196 32.5558 10.2951C33.5865 11.7618 34.7132 12.93 36.9371 13.4228C37.6111 13.5722 38.0364 14.2396 37.887 14.9136C37.7376 15.5876 37.0702 16.0129 36.3962 15.8636C33.3278 15.1836 31.7318 13.4705 30.5104 11.7326C30.4294 11.6173 30.2847 11.5322 30.0663 11.5361C29.8396 11.5401 29.6216 11.6439 29.4874 11.8127C27.5286 14.2753 24.5684 16.25 19.9999 16.25C15.2952 16.25 12.3511 13.6961 10.4826 11.4466L11.4441 10.6479L10.4826 11.4466C10.3738 11.3157 10.2122 11.2467 10.0478 11.2501C9.88883 11.2533 9.77321 11.3202 9.70301 11.4235C8.45939 13.252 6.86395 15.1411 3.60373 15.8636C2.92972 16.0129 2.26225 15.5876 2.11288 14.9136C1.96352 14.2396 2.38882 13.5722 3.06282 13.4228C5.41601 12.9013 6.54311 11.6242 7.63579 10.0175ZM7.63579 18.3509C8.78708 16.6581 11.1918 16.7212 12.4057 18.1825C14.0423 20.1528 16.3496 22.0833 19.9999 22.0833C23.7129 22.0833 25.9848 20.5335 27.5309 18.5898C28.7332 17.0781 31.2957 16.8353 32.5558 18.6285C33.5865 20.0951 34.7132 21.2633 36.9371 21.7561C37.6111 21.9055 38.0364 22.573 37.887 23.247C37.7376 23.921 37.0702 24.3463 36.3962 24.1969C33.3278 23.5169 31.7318 21.8038 30.5104 20.0659C30.4294 19.9506 30.2847 19.8655 30.0663 19.8694C29.8396 19.8735 29.6216 19.9773 29.4874 20.146C27.5286 22.6087 24.5684 24.5833 19.9999 24.5833C15.2952 24.5833 12.3511 22.0295 10.4826 19.7799C10.3738 19.649 10.2122 19.5801 10.0478 19.5834C9.88883 19.5866 9.77321 19.6536 9.70301 19.7568C8.45939 21.5854 6.86395 23.4744 3.60373 24.1969C2.92972 24.3463 2.26225 23.921 2.11288 23.247C1.96352 22.573 2.38882 21.9055 3.06282 21.7561C5.41601 21.2346 6.54311 19.9575 7.63579 18.3509ZM7.63579 26.6842C8.78708 24.9914 11.1918 25.0546 12.4057 26.5159C14.0423 28.4862 16.3496 30.4166 19.9999 30.4166C23.7129 30.4166 25.9848 28.8668 27.5309 26.9231C28.7332 25.4115 31.2957 25.1686 32.5558 26.9618C33.5865 28.4284 34.7132 29.5966 36.9371 30.0895C37.6111 30.2388 38.0364 30.9063 37.887 31.5803C37.7376 32.2543 37.0702 32.6796 36.3962 32.5302C33.3278 31.8503 31.7318 30.1371 30.5104 28.3992C30.4294 28.284 30.2847 28.1988 30.0663 28.2027C29.8396 28.2068 29.6216 28.3106 29.4874 28.4793C27.5286 30.942 24.5684 32.9166 19.9999 32.9166C15.2952 32.9166 12.3511 30.3628 10.4826 28.1133C10.3738 27.9824 10.2122 27.9134 10.0478 27.9167C9.88883 27.9199 9.77321 27.9869 9.70301 28.0901C8.45939 29.9187 6.86395 31.8077 3.60373 32.5302C2.92972 32.6796 2.26225 32.2543 2.11288 31.5803C1.96352 30.9063 2.38882 30.2388 3.06282 30.0895C5.41601 29.568 6.54311 28.2908 7.63579 26.6842Z" fill="currentColor" />
    </symbol>

    <symbol id="moon" width="100%" height="100%" viewBox="0 0 40 40">
      <path d="M13.3333 36.6667H26.6666" fill="currentColor" stroke="currentColor" stroke-width="2" stroke-linecap="round" stroke-linejoin="round" />
      <path d="M8.33325 31.6667H31.6666" fill="currentColor" stroke="currentColor" stroke-width="2" stroke-linecap="round" stroke-linejoin="round" />
      <path d="M3.33325 26.6667H36.6666" fill="currentColor" stroke="currentColor" stroke-width="2" stroke-linecap="round" stroke-linejoin="round" />
      <path d="M35.112 19.7613L34.2561 19.2442V19.2442L35.112 19.7613ZM20.2385 4.88785L19.7213 4.03197L19.7213 4.03197L20.2385 4.88785ZM4.33325 19.9999C4.33325 11.3475 11.3475 4.33325 19.9999 4.33325V2.33325C10.2429 2.33325 2.33325 10.2429 2.33325 19.9999H4.33325ZM25.8333 23.9999C20.4025 23.9999 15.9999 19.5974 15.9999 14.1666H13.9999C13.9999 20.702 19.2979 25.9999 25.8333 25.9999V23.9999ZM34.2561 19.2442C32.5325 22.0966 29.4047 23.9999 25.8333 23.9999V25.9999C30.1337 25.9999 33.8972 23.7053 35.9679 20.2785L34.2561 19.2442ZM15.9999 14.1666C15.9999 10.5952 17.9033 7.46734 20.7557 5.74373L19.7213 4.03197C16.2945 6.10267 13.9999 9.86618 13.9999 14.1666H15.9999ZM35.6666 19.9999C35.6666 22.2299 35.2013 24.3486 34.3634 26.2662L36.1961 27.067C37.1422 24.9015 37.6666 22.5106 37.6666 19.9999H35.6666ZM5.63642 26.2662C4.79856 24.3486 4.33325 22.2299 4.33325 19.9999H2.33325C2.33325 22.5106 2.8576 24.9015 3.80371 27.067L5.63642 26.2662ZM19.9999 4.33325C19.9691 4.33325 19.9213 4.32695 19.8667 4.30366C19.8124 4.28054 19.7675 4.24756 19.7342 4.21286C19.6711 4.14722 19.6649 4.09484 19.6649 4.09483C19.6646 4.09242 19.664 4.09445 19.6656 4.09064C19.6694 4.08175 19.6852 4.05381 19.7213 4.03197L20.7557 5.74373C21.4925 5.2985 21.7349 4.47853 21.6469 3.82716C21.5558 3.15272 21.0325 2.33325 19.9999 2.33325V4.33325ZM35.9679 20.2785C35.946 20.3146 35.9181 20.3305 35.9092 20.3342C35.9054 20.3358 35.9074 20.3353 35.905 20.3349C35.905 20.3349 35.8526 20.3287 35.787 20.2656C35.7523 20.2323 35.7193 20.1875 35.6962 20.1332C35.6729 20.0785 35.6666 20.0308 35.6666 19.9999H37.6666C37.6666 18.9673 36.8471 18.444 36.1727 18.3529C35.5213 18.265 34.7013 18.5073 34.2561 19.2442L35.9679 20.2785Z" fill="currentColor" />
      <path d="M33.1669 3.84523C32.8987 3.16259 31.9361 3.16259 31.6679 3.84523L30.9506 5.67071C30.8687 5.87912 30.7043 6.0441 30.4967 6.1263L28.6779 6.84625C27.9978 7.11548 27.9978 8.08159 28.6779 8.35082L30.4967 9.07078C30.7043 9.15298 30.8687 9.31795 30.9506 9.52637L31.6679 11.3518C31.9361 12.0345 32.8987 12.0345 33.1669 11.3518L33.8842 9.52637C33.9661 9.31795 34.1305 9.15298 34.3381 9.07078L36.1569 8.35082C36.837 8.08159 36.837 7.11548 36.1569 6.84625L34.3381 6.1263C34.1305 6.0441 33.9661 5.87912 33.8842 5.67071L33.1669 3.84523Z" fill="transparent" stroke="currentColor" stroke-width="2" />
      <path d="M26.7213 13.5494C26.4531 12.8667 25.4906 12.8667 25.2223 13.5494L24.9608 14.2149C24.8789 14.4234 24.7145 14.5883 24.5069 14.6705L23.8438 14.933C23.1636 15.2023 23.1636 16.1684 23.8438 16.4376L24.5069 16.7001C24.7145 16.7823 24.8789 16.9473 24.9608 17.1557L25.2223 17.8213C25.4906 18.5039 26.4531 18.5039 26.7213 17.8213L26.9829 17.1557C27.0648 16.9473 27.2291 16.7823 27.4368 16.7001L28.0999 16.4376C28.78 16.1684 28.78 15.2023 28.0999 14.933L27.4368 14.6705C27.2291 14.5883 27.0648 14.4234 26.9829 14.2149L26.7213 13.5494Z" fill="transparent" stroke="currentColor" stroke-width="2" />
    </symbol>

    <symbol id="glass" width="100%" height="100%" viewBox="0 0 40 40">
      <path d="M20.9999 25.4761C20.9999 24.9238 20.5522 24.4761 19.9999 24.4761C19.4476 24.4761 18.9999 24.9238 18.9999 25.4761H20.9999ZM26.2499 35.9999C26.8022 35.9999 27.2499 35.5522 27.2499 34.9999C27.2499 34.4476 26.8022 33.9999 26.2499 33.9999V35.9999ZM13.7499 33.9999C13.1976 33.9999 12.7499 34.4476 12.7499 34.9999C12.7499 35.5522 13.1976 35.9999 13.7499 35.9999V33.9999ZM18.9999 25.4761V34.9999H20.9999V25.4761H18.9999ZM26.2499 33.9999H19.9999V35.9999H26.2499V33.9999ZM19.9999 33.9999H13.7499V35.9999H19.9999V33.9999ZM11.4911 6H28.5087V4H11.4911V6ZM30.6666 8.15789V13.3333H32.6666V8.15789H30.6666ZM9.33325 13.3333V8.1579H7.33325V13.3333H9.33325ZM19.9999 24C14.1089 24 9.33325 19.2244 9.33325 13.3333H7.33325C7.33325 20.3289 13.0043 26 19.9999 26V24ZM30.6666 13.3333C30.6666 19.2244 25.891 24 19.9999 24V26C26.9955 26 32.6666 20.3289 32.6666 13.3333H30.6666ZM28.5087 6C29.7005 6 30.6666 6.96612 30.6666 8.15789H32.6666C32.6666 5.86155 30.805 4 28.5087 4V6ZM11.4911 4C9.1948 4 7.33325 5.86155 7.33325 8.1579H9.33325C9.33325 6.96612 10.2994 6 11.4911 6V4Z" fill="currentColor" />
      <path d="M9.16675 15C9.16675 15 12.6353 13.4788 15.0001 13.3334C19.1088 13.0807 20.8914 16.9194 25.0001 16.6667C27.3648 16.5213 30.8334 15 30.8334 15" fill="transparent" stroke="currentColor" stroke-width="2" stroke-linecap="round" />
    </symbol>

    <symbol id="chair" width="100%" height="100%" viewBox="0 0 40 40">
      <path d="M28.3332 35V26.6666M11.6665 35V26.6666" fill="transparent" stroke="currentColor" stroke-width="2" stroke-linecap="round" />
      <path d="M25.8333 20H14.1666C11.4167 20 10.0418 20 9.18754 20.9763C8.71107 21.5209 8.50035 22.2505 8.40716 23.3347C8.27809 24.8363 8.21355 25.5872 8.70889 26.1269C9.20424 26.6667 10.025 26.6667 11.6666 26.6667H28.3333C29.9749 26.6667 30.7956 26.6667 31.291 26.1269C31.7863 25.5872 31.7218 24.8363 31.5927 23.3347C31.4995 22.2505 31.2888 21.5209 30.8123 20.9763C29.9581 20 28.5831 20 25.8333 20Z" fill="transparent" stroke="currentColor" stroke-width="2" />
      <path d="M11.6667 13.3333C11.6667 10.2179 11.6667 8.66025 12.3366 7.5C12.7755 6.7399 13.4067 6.10871 14.1667 5.66987C15.327 5 16.8847 5 20.0001 5C23.1155 5 24.6732 5 25.8334 5.66987C26.5935 6.10871 27.2247 6.7399 27.6635 7.5C28.3334 8.66025 28.3334 10.2179 28.3334 13.3333V20H11.6667V13.3333Z" fill="transparent" stroke="currentColor" stroke-width="2" />
    </symbol>

    <symbol id="heart" width="100%" height="100%" viewBox="0 0 40 40">
      <path d="M14.9363 31.5181L15.5553 30.7327L14.9363 31.5181ZM20 9.16766L19.2796 9.86113C19.4681 10.057 19.7282 10.1677 20 10.1677C20.2719 10.1677 20.532 10.057 20.7205 9.86113L20 9.16766ZM25.0638 31.5181L25.6829 32.3034L25.0638 31.5181ZM15.5553 30.7327C13.0441 28.7531 10.2542 26.7881 8.04359 24.2989C5.86728 21.8483 4.33337 18.9688 4.33337 15.2284H2.33337C2.33337 19.593 4.14899 22.9254 6.54816 25.6269C8.91306 28.2899 11.9246 30.4173 14.3172 32.3034L15.5553 30.7327ZM4.33337 15.2284C4.33337 11.5501 6.41221 8.45254 9.27004 7.14622C12.0648 5.86872 15.7856 6.23106 19.2796 9.86113L20.7205 8.47419C16.7147 4.31232 12.1022 3.6526 8.43858 5.32724C4.838 6.97308 2.33337 10.8019 2.33337 15.2284H4.33337ZM14.3172 32.3034C15.1732 32.9782 16.0762 33.6848 16.9875 34.2173C17.8985 34.7496 18.9128 35.1666 20 35.1666V33.1666C19.4206 33.1666 18.7682 32.9414 17.9966 32.4905C17.2253 32.0398 16.4298 31.4221 15.5553 30.7327L14.3172 32.3034ZM25.6829 32.3034C28.0755 30.4173 31.087 28.2899 33.4519 25.6269C35.8511 22.9254 37.6667 19.593 37.6667 15.2284H35.6667C35.6667 18.9688 34.1328 21.8483 31.9565 24.2989C29.7459 26.7881 26.956 28.7531 24.4447 30.7327L25.6829 32.3034ZM37.6667 15.2284C37.6667 10.8019 35.1621 6.97308 31.5615 5.32724C27.8979 3.6526 23.2853 4.31232 19.2796 8.47419L20.7205 9.86113C24.2145 6.23106 27.9353 5.86872 30.73 7.14622C33.5879 8.45254 35.6667 11.5501 35.6667 15.2284H37.6667ZM24.4447 30.7327C23.5703 31.4221 22.7748 32.0398 22.0035 32.4905C21.2319 32.9414 20.5795 33.1666 20 33.1666V35.1666C21.0872 35.1666 22.1016 34.7496 23.0125 34.2173C23.9238 33.6848 24.8269 32.9782 25.6829 32.3034L24.4447 30.7327Z" fill="currentColor" />
    </symbol>

    <symbol id="confetti" width="100%" height="100%" viewBox="0 0 40 40">
      <path d="M6.6867 26.2696L9.50253 17.8222C10.7792 13.9921 11.4176 12.0771 12.928 11.7205C14.4384 11.3639 15.8658 12.7913 18.7206 15.6461L24.3522 21.2777C27.207 24.1325 28.6344 25.5599 28.2778 27.0703C27.9212 28.5808 26.0062 29.2191 22.1761 30.4958L13.7287 33.3116C9.11963 34.848 6.81512 35.6161 5.59866 34.3997C4.38219 33.1832 5.15036 30.8787 6.6867 26.2696Z" fill="transparent" stroke="currentColor" stroke-width="2" stroke-linecap="round" />
      <path d="M20.392 30.5771C20.392 30.5771 19.1284 26.7752 19.1284 24.2589C19.1284 21.7427 20.392 17.9408 20.392 17.9408M13.4421 32.4725C13.4421 32.4725 12.3749 27.886 12.1785 24.8908C11.854 19.942 13.4421 12.2545 13.4421 12.2545" fill="transparent" stroke="currentColor" stroke-width="2" stroke-linecap="round" />
      <path d="M24.1821 16.6768L24.4221 15.4769C24.6644 14.2654 25.5373 13.2766 26.7094 12.8859C27.8815 12.4952 28.7543 11.5064 28.9966 10.2949L29.2366 9.09503" fill="transparent" stroke="currentColor" stroke-width="2" stroke-linecap="round" />
      <path d="M29.2817 20.4226L29.6365 20.6274C30.7317 21.2597 32.1086 21.1203 33.0548 20.2812C33.9116 19.5214 35.1319 19.3287 36.1812 19.7875L36.667 19.9999" fill="transparent" stroke="currentColor" stroke-width="2" stroke-linecap="round" />
      <path d="M17.5586 5C16.9961 5.9201 17.1371 7.10574 17.8996 7.86829L18.0627 8.03142C18.718 8.68669 18.9596 9.64932 18.6915 10.5364" fill="transparent" stroke="currentColor" stroke-width="2" stroke-linecap="round" />
      <path d="M22.6015 7.3272C22.9366 6.9921 23.1042 6.82455 23.2979 6.76314C23.4618 6.7112 23.6377 6.7112 23.8016 6.76314C23.9953 6.82455 24.1628 6.9921 24.4979 7.3272C24.833 7.66229 25.0006 7.82984 25.062 8.02357C25.1139 8.18743 25.1139 8.36335 25.062 8.52721C25.0006 8.72094 24.833 8.88849 24.4979 9.22358C24.1628 9.55867 23.9953 9.72622 23.8016 9.78763C23.6377 9.83958 23.4618 9.83958 23.2979 9.78763C23.1042 9.72622 22.9366 9.55867 22.6015 9.22358C22.2665 8.88849 22.0989 8.72094 22.0375 8.52721C21.9855 8.36335 21.9855 8.18743 22.0375 8.02357C22.0989 7.82984 22.2665 7.66229 22.6015 7.3272Z" fill="currentColor" />
      <path d="M32.4471 12.4471C32.8561 12.0381 33.0606 11.8336 33.2913 11.7447C33.5613 11.6407 33.8602 11.6407 34.1302 11.7447C34.3609 11.8336 34.5654 12.0381 34.9744 12.4471C35.3834 12.856 35.5878 13.0605 35.6767 13.2912C35.7807 13.5612 35.7807 13.8602 35.6767 14.1301C35.5878 14.3608 35.3834 14.5653 34.9744 14.9743C34.5654 15.3833 34.3609 15.5878 34.1302 15.6767C33.8602 15.7807 33.5613 15.7807 33.2913 15.6767C33.0606 15.5878 32.8561 15.3833 32.4471 14.9743C32.0381 14.5653 31.8336 14.3608 31.7448 14.1301C31.6407 13.8602 31.6407 13.5612 31.7448 13.2912C31.8336 13.0605 32.0381 12.856 32.4471 12.4471Z" fill="currentColor" />
      <path d="M11.5455 6.56799C11.8946 6.21887 12.4607 6.21887 12.8098 6.56799C13.1589 6.9171 13.1589 7.48313 12.8098 7.83224C12.4607 8.18136 11.8946 8.18136 11.5455 7.83224C11.1964 7.48313 11.1964 6.9171 11.5455 6.56799Z" fill="currentColor" />
      <path d="M31.7638 25.5223C32.1129 25.1732 32.6789 25.1732 33.028 25.5223C33.3772 25.8714 33.3772 26.4374 33.028 26.7865C32.6789 27.1356 32.1129 27.1356 31.7638 26.7865C31.4147 26.4374 31.4147 25.8714 31.7638 25.5223Z" fill="currentColor" />
      <path d="M29.1666 16.2357C29.5157 15.8866 30.0817 15.8866 30.4308 16.2357C30.78 16.5849 30.78 17.1509 30.4308 17.5C30.0817 17.8491 29.5157 17.8491 29.1666 17.5C28.8175 17.1509 28.8175 16.5849 29.1666 16.2357Z" fill="currentColor" />
    </symbol>

    <symbol id="wine" width="100%" height="100%" viewBox="0 0 40 40">
      <path d="M20 24.2857L34.1937 9.77303C35.9374 7.99014 34.6665 5 32.1651 5H7.83491C5.33347 5 4.06265 7.99014 5.80635 9.77304L20 24.2857ZM20 24.2857V35M20 35H27.0732M20 35H12.9268M12.4553 16.25H27.5447" fill="transparent" stroke="currentColor" stroke-width="2" stroke-linecap="round" />
    </symbol>

    <symbol id="phone" width="100%" height="100%" viewBox="0 0 20 20">
      <path d="M12.9635 12.1231L12.5839 12.5227C12.5839 12.5227 11.6818 13.4725 9.21927 10.8799C6.75676 8.28736 7.65892 7.33756 7.65892 7.33756L7.89793 7.08593C8.48673 6.46604 8.54223 5.4708 8.02853 4.74425L6.97771 3.25801C6.3419 2.35875 5.1133 2.23996 4.38454 3.0072L3.07654 4.38428C2.71519 4.76471 2.47304 5.25788 2.50241 5.80495C2.57753 7.20455 3.1756 10.2159 6.5128 13.7293C10.0518 17.4552 13.3724 17.6033 14.7302 17.4692C15.1597 17.4269 15.5333 17.1952 15.8343 16.8783L17.0181 15.632C17.8171 14.7908 17.5918 13.3485 16.5694 12.76L14.9774 11.8436C14.306 11.4572 13.4881 11.5707 12.9635 12.1231Z" fill="currentColor" />
      <path d="M11.0497 1.56673C11.1048 1.22599 11.4269 0.994843 11.7677 1.05001C11.7888 1.05404 11.8566 1.06673 11.8922 1.07465C11.9633 1.09048 12.0625 1.11486 12.1862 1.15089C12.4335 1.22292 12.779 1.34159 13.1937 1.53171C14.0239 1.91233 15.1287 2.57817 16.2752 3.72467C17.4217 4.87117 18.0876 5.97602 18.4682 6.80625C18.6583 7.22093 18.777 7.56643 18.849 7.81375C18.885 7.93742 18.9094 8.03661 18.9253 8.10772C18.9332 8.14327 18.939 8.17182 18.943 8.19291L18.9478 8.21891C19.003 8.55965 18.7739 8.89508 18.4332 8.95025C18.0934 9.00525 17.7733 8.77523 17.7168 8.43608C17.7151 8.42698 17.7103 8.40251 17.7051 8.37944C17.6949 8.33329 17.6771 8.2601 17.6489 8.16331C17.5925 7.96969 17.4945 7.68192 17.3319 7.32719C17.0071 6.6186 16.4229 5.64011 15.3913 4.60856C14.3598 3.577 13.3813 2.99284 12.6727 2.66798C12.318 2.50535 12.0302 2.40741 11.8366 2.35101C11.7398 2.32282 11.6181 2.2949 11.572 2.28462C11.2328 2.2281 10.9946 1.9065 11.0497 1.56673Z" fill="currentColor" />
      <path fill-rule="evenodd" clip-rule="evenodd" d="M11.2382 4.44128C11.333 4.10939 11.679 3.9172 12.0108 4.01203L11.8391 4.61298C12.0108 4.01203 12.0108 4.01203 12.0108 4.01203L12.012 4.01238L12.0133 4.01274L12.0161 4.01356L12.0226 4.01548L12.0391 4.02062C12.0516 4.02464 12.0673 4.02987 12.086 4.03651C12.1234 4.04979 12.1729 4.06868 12.2336 4.09468C12.355 4.14671 12.5209 4.22706 12.7246 4.34765C13.1325 4.58906 13.6893 4.99004 14.3435 5.64418C14.9976 6.29833 15.3986 6.85515 15.64 7.26303C15.7606 7.46679 15.841 7.63268 15.893 7.75408C15.919 7.81476 15.9379 7.86422 15.9512 7.90165C15.9578 7.92036 15.963 7.93605 15.967 7.94861L15.9722 7.9651L15.9741 7.97156L15.9749 7.97434L15.9753 7.97562C15.9753 7.97562 15.9756 7.97682 15.3747 8.14852L15.9756 7.97682C16.0705 8.30871 15.8783 8.65464 15.5464 8.74947C15.2173 8.84349 14.8744 8.65536 14.7762 8.32864L14.7731 8.31966C14.7687 8.30714 14.7595 8.28249 14.7441 8.24648C14.7132 8.17454 14.6573 8.05684 14.5643 7.89968C14.3785 7.58573 14.0429 7.11136 13.4596 6.52807C12.8763 5.94477 12.4019 5.60918 12.088 5.42338C11.9308 5.33036 11.8131 5.27445 11.7412 5.24361C11.7052 5.22818 11.6805 5.21899 11.668 5.21455L11.659 5.21147C11.3323 5.11323 11.1442 4.77036 11.2382 4.44128Z" fill="currentColor" />
    </symbol>

    <symbol id="email" width="100%" height="100%" viewBox="0 0 20 20">
      <path d="M18.3334 5C18.3334 6.38071 17.2141 7.5 15.8334 7.5C14.4527 7.5 13.3334 6.38071 13.3334 5C13.3334 3.61929 14.4527 2.5 15.8334 2.5C17.2141 2.5 18.3334 3.61929 18.3334 5Z" fill="currentColor" />
      <path fill-rule="evenodd" clip-rule="evenodd" d="M11.6667 4.16667H8.33341C5.19072 4.16667 3.61937 4.16667 2.64306 5.14298C1.66675 6.11929 1.66675 7.69064 1.66675 10.8333C1.66675 13.976 1.66675 15.5474 2.64306 16.5237C3.61937 17.5 5.19072 17.5 8.33341 17.5H11.6667C14.8094 17.5 16.3808 17.5 17.3571 16.5237C18.3334 15.5474 18.3334 13.976 18.3334 10.8333C18.3334 9.6222 18.3334 8.64443 18.2775 7.84416C17.6211 8.40875 16.7671 8.75 15.8334 8.75C15.4345 8.75 15.0502 8.68772 14.6895 8.57234L13.5698 9.50547C12.8312 10.121 12.2325 10.6199 11.7041 10.9598C11.1537 11.3138 10.6176 11.5374 10.0001 11.5374C9.38252 11.5374 8.84648 11.3138 8.29606 10.9598C7.76768 10.6199 7.16901 10.121 6.43038 9.50548L4.59997 7.98014C4.33479 7.75916 4.29897 7.36506 4.51994 7.09988C4.74092 6.83471 5.13502 6.79888 5.4002 7.01986L7.19928 8.51909C7.97674 9.16698 8.51652 9.61535 8.97223 9.90844C9.41337 10.1922 9.71252 10.2874 10.0001 10.2874C10.2876 10.2874 10.5868 10.1922 11.0279 9.90844C11.4836 9.61535 12.0234 9.16698 12.8009 8.51909L13.5004 7.93613C12.637 7.24911 12.0834 6.1892 12.0834 5C12.0834 4.71365 12.1155 4.43479 12.1763 4.16683C12.0112 4.16667 11.8414 4.16667 11.6667 4.16667Z" fill="currentColor" />
    </symbol>

    <symbol id="play" width="100%" height="100%" viewBox="0 0 24 24">
      <path fill-rule="evenodd" clip-rule="evenodd" d="M12 22C17.5228 22 22 17.5228 22 12C22 6.47715 17.5228 2 12 2C6.47715 2 2 6.47715 2 12C2 17.5228 6.47715 22 12 22ZM10.6935 15.8458L15.4137 13.059C16.1954 12.5974 16.1954 11.4026 15.4137 10.941L10.6935 8.15419C9.93371 7.70561 9 8.28947 9 9.21316V14.7868C9 15.7105 9.93371 16.2944 10.6935 15.8458Z" fill="currentColor" />
    </symbol>

    <symbol id="lines" width="100%" height="100%" viewBox="0 0 1862 1728">
      <path fill-rule="evenodd" clip-rule="evenodd" d="M1546.72 1263.53C1476.12 1331.42 1340.76 1325.91 1229.54 1352.37C1115.45 1379.52 1014.57 1498.1 887.756 1420.32C741.597 1330.67 853.817 1141.89 718.714 1039.05C546.912 908.283 222.008 1006.54 128.234 842.203C44.2744 695.066 364.21 710.837 502.934 660.902C572.093 636.008 659.746 645.992 731.935 624.895C812.424 601.373 857.02 540.626 946.775 531.194C1108.01 514.252 1284.17 447.257 1450.17 549.426C1606.64 645.73 1621.59 822.394 1639.9 957.798C1656.13 1077.87 1626.05 1187.26 1546.72 1263.53Z" fill="transparent" stroke="currentColor" />
      <path fill-rule="evenodd" clip-rule="evenodd" d="M1517.38 1318.86C1446.78 1386.75 1311.42 1381.24 1200.2 1407.7C1086.11 1434.85 985.23 1553.43 858.417 1475.65C712.258 1386 824.478 1197.22 689.376 1094.38C517.573 963.613 192.669 1061.87 98.895 897.533C14.9355 750.396 334.871 766.167 473.595 716.232C542.754 691.338 630.407 701.322 702.597 680.225C783.085 656.703 827.681 595.955 917.436 586.524C1078.67 569.582 1254.83 502.587 1420.83 604.756C1577.3 701.06 1592.26 877.724 1610.56 1013.13C1626.8 1133.2 1596.71 1242.59 1517.38 1318.86Z" fill="transparent" stroke="currentColor" />
      <path fill-rule="evenodd" clip-rule="evenodd" d="M1563.63 1234.25C1493.03 1302.13 1357.67 1296.62 1246.45 1323.08C1132.35 1350.23 1031.48 1468.82 904.664 1391.04C758.504 1301.39 870.725 1112.6 735.622 1009.77C563.819 878.996 238.916 977.255 145.142 812.917C61.1822 665.78 381.118 681.551 519.842 631.616C589.001 606.722 676.654 616.705 748.843 595.609C829.332 572.087 873.928 511.339 963.683 501.908C1124.92 484.966 1301.08 417.971 1467.08 520.14C1623.55 616.444 1638.5 793.108 1656.81 928.511C1673.04 1048.58 1642.96 1157.97 1563.63 1234.25Z" fill="transparent" stroke="currentColor" />
      <path fill-rule="evenodd" clip-rule="evenodd" d="M1555.17 1248.89C1484.57 1316.78 1349.21 1311.27 1237.99 1337.73C1123.9 1364.88 1023.02 1483.46 896.21 1405.68C750.05 1316.03 862.271 1127.24 727.168 1024.41C555.365 893.64 230.462 991.898 136.687 827.56C52.7281 680.423 372.664 696.194 511.387 646.259C580.546 621.365 668.2 631.349 740.389 610.252C820.878 586.73 865.473 525.982 955.229 516.551C1116.47 499.609 1292.63 432.614 1458.63 534.783C1615.1 631.087 1630.05 807.752 1648.35 943.155C1664.59 1063.23 1634.5 1172.61 1555.17 1248.89Z" fill="transparent" stroke="currentColor" />
    </symbol>

    <symbol id="sun" width="100%" height="100%" viewBox="0 0 24 24">
      <path d="M8 22H16" fill="transparent" stroke="currentColor" stroke-width="1.5" stroke-linecap="round" stroke-linejoin="round" />
      <path d="M5 19H19" fill="transparent" stroke="currentColor" stroke-width="1.5" stroke-linecap="round" stroke-linejoin="round" />
      <path d="M2 16H22" fill="transparent" stroke="currentColor" stroke-width="1.5" stroke-linecap="round" stroke-linejoin="round" />
      <path d="M12 6C8.68629 6 6 8.68629 6 12C6 13.5217 6.56645 14.911 7.5 15.9687H16.5C17.4335 14.911 18 13.5217 18 12C18 8.68629 15.3137 6 12 6Z" fill="transparent" stroke="currentColor" stroke-width="1.5" />
      <path d="M12 2V3" fill="transparent" stroke="currentColor" stroke-width="1.5" stroke-linecap="round" />
      <path d="M22 12L21 12" fill="transparent" stroke="currentColor" stroke-width="1.5" stroke-linecap="round" />
      <path d="M3 12L2 12" fill="transparent" stroke="currentColor" stroke-width="1.5" stroke-linecap="round" />
      <path d="M19.0708 4.9292L18.678 5.32204" fill="transparent" stroke="currentColor" stroke-width="1.5" stroke-linecap="round" />
      <path d="M5.32178 5.32178L4.92894 4.92894" fill="transparent" stroke="currentColor" stroke-width="1.5" stroke-linecap="round" />
    </symbol>

    <symbol id="star" width="100%" height="100%" viewBox="0 0 24 24">
      <path d="M3 10.4167C3 7.21907 3 5.62028 3.37752 5.08241C3.75503 4.54454 5.25832 4.02996 8.26491 3.00079L8.83772 2.80472C10.405 2.26824 11.1886 2 12 2C12.8114 2 13.595 2.26824 15.1623 2.80472L15.7351 3.00079C18.7417 4.02996 20.245 4.54454 20.6225 5.08241C21 5.62028 21 7.21907 21 10.4167C21 10.8996 21 11.4234 21 11.9914C21 17.6294 16.761 20.3655 14.1014 21.5273C13.38 21.8424 13.0193 22 12 22C10.9807 22 10.62 21.8424 9.89856 21.5273C7.23896 20.3655 3 17.6294 3 11.9914C3 11.4234 3 10.8996 3 10.4167Z" fill="transparent" stroke="currentColor" stroke-width="1.5" />
      <path d="M10.8613 8.36335C11.3679 7.45445 11.6213 7 12 7C12.3787 7 12.6321 7.45445 13.1387 8.36335L13.2698 8.59849C13.4138 8.85677 13.4858 8.98591 13.598 9.07112C13.7103 9.15633 13.8501 9.18796 14.1296 9.25122L14.3842 9.30881C15.3681 9.53142 15.86 9.64273 15.977 10.0191C16.0941 10.3955 15.7587 10.7876 15.088 11.572L14.9144 11.7749C14.7238 11.9978 14.6285 12.1092 14.5857 12.2471C14.5428 12.385 14.5572 12.5336 14.586 12.831L14.6122 13.1018C14.7136 14.1482 14.7644 14.6715 14.4579 14.9041C14.1515 15.1367 13.6909 14.9246 12.7697 14.5005L12.5314 14.3907C12.2696 14.2702 12.1387 14.2099 12 14.2099C11.8613 14.2099 11.7304 14.2702 11.4686 14.3907L11.2303 14.5005C10.3091 14.9246 9.84847 15.1367 9.54206 14.9041C9.23565 14.6715 9.28635 14.1482 9.38776 13.1018L9.41399 12.831C9.44281 12.5336 9.45722 12.385 9.41435 12.2471C9.37147 12.1092 9.27617 11.9978 9.08557 11.7749L8.91204 11.572C8.2413 10.7876 7.90593 10.3955 8.02297 10.0191C8.14001 9.64273 8.63194 9.53142 9.61581 9.30881L9.87035 9.25122C10.1499 9.18796 10.2897 9.15633 10.402 9.07112C10.5142 8.98591 10.5862 8.85677 10.7302 8.59849L10.8613 8.36335Z" fill="transparent" stroke="currentColor" stroke-width="1.5" />
    </symbol>

    <symbol id="routing" width="100%" height="100%" viewBox="0 0 24 24">
      <circle cx="5" cy="5" r="3" fill="transparent" stroke="currentColor" stroke-width="1.5" />
      <circle cx="19" cy="19" r="3" fill="transparent" stroke="currentColor" stroke-width="1.5" />
      <path d="M11.0002 4.25C10.586 4.25 10.2502 4.58579 10.2502 5C10.2502 5.41421 10.586 5.75 11.0002 5.75V4.25ZM13.0002 19L13.5305 19.5303C13.8234 19.2374 13.8234 18.7626 13.5305 18.4697L13.0002 19ZM17.2059 8.68732L17.6085 9.32007L17.2059 8.68732ZM6.79459 15.3127L7.19725 15.9454H7.19725L6.79459 15.3127ZM12.0305 16.9697C11.7377 16.6768 11.2628 16.6768 10.9699 16.9697C10.677 17.2626 10.677 17.7374 10.9699 18.0303L12.0305 16.9697ZM10.9699 19.9697C10.677 20.2626 10.677 20.7374 10.9699 21.0303C11.2628 21.3232 11.7377 21.3232 12.0305 21.0303L10.9699 19.9697ZM16.1321 4.25H11.0002V5.75H16.1321V4.25ZM13.0002 18.25H7.86833V19.75H13.0002V18.25ZM16.8032 8.05458L6.39193 14.6799L7.19725 15.9454L17.6085 9.32007L16.8032 8.05458ZM13.5305 18.4697L12.0305 16.9697L10.9699 18.0303L12.4699 19.5303L13.5305 18.4697ZM12.4699 18.4697L10.9699 19.9697L12.0305 21.0303L13.5305 19.5303L12.4699 18.4697ZM7.86833 18.25C6.61778 18.25 6.14219 16.6168 7.19725 15.9454L6.39193 14.6799C4.07083 16.157 5.11709 19.75 7.86833 19.75V18.25ZM16.1321 5.75C17.3827 5.75 17.8582 7.38318 16.8032 8.05458L17.6085 9.32007C19.9296 7.843 18.8833 4.25 16.1321 4.25V5.75Z" fill="currentColor" />
    </symbol>

    <symbol id="like" width="100%" height="100%" viewBox="0 0 24 24">
      <path d="M20.9752 12.1852L20.2361 12.0574L20.9752 12.1852ZM20.2696 16.265L19.5306 16.1371L20.2696 16.265ZM6.93777 20.4771L6.19056 20.5417L6.93777 20.4771ZM6.12561 11.0844L6.87282 11.0198L6.12561 11.0844ZM13.995 5.22142L14.7351 5.34269V5.34269L13.995 5.22142ZM13.3323 9.26598L14.0724 9.38725V9.38725L13.3323 9.26598ZM6.69814 9.67749L6.20855 9.10933H6.20855L6.69814 9.67749ZM8.13688 8.43769L8.62647 9.00585H8.62647L8.13688 8.43769ZM10.5181 4.78374L9.79208 4.59542L10.5181 4.78374ZM10.9938 2.94989L11.7197 3.13821V3.13821L10.9938 2.94989ZM12.6676 2.06435L12.4382 2.77841L12.4382 2.77841L12.6676 2.06435ZM12.8126 2.11093L13.042 1.39687L13.042 1.39687L12.8126 2.11093ZM9.86195 6.46262L10.5235 6.81599V6.81599L9.86195 6.46262ZM13.9047 3.24752L13.1787 3.43584V3.43584L13.9047 3.24752ZM11.6742 2.13239L11.3486 1.45675V1.45675L11.6742 2.13239ZM3.9716 21.4707L3.22439 21.5353L3.9716 21.4707ZM3 10.2342L3.74721 10.1696C3.71261 9.76945 3.36893 9.46758 2.96767 9.4849C2.5664 9.50221 2.25 9.83256 2.25 10.2342H3ZM20.2361 12.0574L19.5306 16.1371L21.0087 16.3928L21.7142 12.313L20.2361 12.0574ZM13.245 21.25H8.59635V22.75H13.245V21.25ZM7.68498 20.4125L6.87282 11.0198L5.3784 11.149L6.19056 20.5417L7.68498 20.4125ZM19.5306 16.1371C19.0238 19.0677 16.3813 21.25 13.245 21.25V22.75C17.0712 22.75 20.3708 20.081 21.0087 16.3928L19.5306 16.1371ZM13.2548 5.10015L12.5921 9.14472L14.0724 9.38725L14.7351 5.34269L13.2548 5.10015ZM7.18773 10.2456L8.62647 9.00585L7.64729 7.86954L6.20855 9.10933L7.18773 10.2456ZM11.244 4.97206L11.7197 3.13821L10.2678 2.76157L9.79208 4.59542L11.244 4.97206ZM12.4382 2.77841L12.5832 2.82498L13.042 1.39687L12.897 1.3503L12.4382 2.77841ZM10.5235 6.81599C10.8354 6.23198 11.0777 5.61339 11.244 4.97206L9.79208 4.59542C9.65573 5.12107 9.45699 5.62893 9.20042 6.10924L10.5235 6.81599ZM12.5832 2.82498C12.8896 2.92342 13.1072 3.16009 13.1787 3.43584L14.6307 3.05921C14.4252 2.26719 13.819 1.64648 13.042 1.39687L12.5832 2.82498ZM11.7197 3.13821C11.7548 3.0032 11.8523 2.87913 11.9998 2.80804L11.3486 1.45675C10.8166 1.71309 10.417 2.18627 10.2678 2.76157L11.7197 3.13821ZM11.9998 2.80804C12.1345 2.74311 12.2931 2.73181 12.4382 2.77841L12.897 1.3503C12.3873 1.18655 11.8312 1.2242 11.3486 1.45675L11.9998 2.80804ZM14.1537 10.9842H19.3348V9.4842H14.1537V10.9842ZM4.71881 21.4061L3.74721 10.1696L2.25279 10.2988L3.22439 21.5353L4.71881 21.4061ZM3.75 21.5127V10.2342H2.25V21.5127H3.75ZM3.22439 21.5353C3.2112 21.3828 3.33146 21.25 3.48671 21.25V22.75C4.21268 22.75 4.78122 22.1279 4.71881 21.4061L3.22439 21.5353ZM14.7351 5.34269C14.8596 4.58256 14.8241 3.80477 14.6307 3.0592L13.1787 3.43584C13.3197 3.97923 13.3456 4.54613 13.2548 5.10016L14.7351 5.34269ZM8.59635 21.25C8.12244 21.25 7.72601 20.887 7.68498 20.4125L6.19056 20.5417C6.29852 21.7902 7.3427 22.75 8.59635 22.75V21.25ZM8.62647 9.00585C9.30632 8.42 10.0392 7.72267 10.5235 6.81599L9.20042 6.10924C8.85404 6.75767 8.3025 7.30493 7.64729 7.86954L8.62647 9.00585ZM21.7142 12.313C21.9695 10.8365 20.8341 9.4842 19.3348 9.4842V10.9842C19.9014 10.9842 20.3332 11.4959 20.2361 12.0574L21.7142 12.313ZM3.48671 21.25C3.63292 21.25 3.75 21.3684 3.75 21.5127H2.25C2.25 22.1953 2.80289 22.75 3.48671 22.75V21.25ZM12.5921 9.14471C12.4344 10.1076 13.1766 10.9842 14.1537 10.9842V9.4842C14.1038 9.4842 14.0639 9.43901 14.0724 9.38725L12.5921 9.14471ZM6.87282 11.0198C6.8474 10.7258 6.96475 10.4378 7.18773 10.2456L6.20855 9.10933C5.62022 9.61631 5.31149 10.3753 5.3784 11.149L6.87282 11.0198Z" fill="currentColor" />
    </symbol>

    <symbol id="widget" width="100%" height="100%" viewBox="0 0 24 24">
      <path d="M2.5 6.5C2.5 4.61438 2.5 3.67157 3.08579 3.08579C3.67157 2.5 4.61438 2.5 6.5 2.5C8.38562 2.5 9.32843 2.5 9.91421 3.08579C10.5 3.67157 10.5 4.61438 10.5 6.5V17.5C10.5 19.3856 10.5 20.3284 9.91421 20.9142C9.32843 21.5 8.38562 21.5 6.5 21.5C4.61438 21.5 3.67157 21.5 3.08579 20.9142C2.5 20.3284 2.5 19.3856 2.5 17.5V6.5Z" fill="transparent" stroke="currentColor" stroke-width="1.5" />
      <path d="M13.5 15.5C13.5 13.6144 13.5 12.6716 14.0858 12.0858C14.6716 11.5 15.6144 11.5 17.5 11.5C19.3856 11.5 20.3284 11.5 20.9142 12.0858C21.5 12.6716 21.5 13.6144 21.5 15.5V17.5C21.5 19.3856 21.5 20.3284 20.9142 20.9142C20.3284 21.5 19.3856 21.5 17.5 21.5C15.6144 21.5 14.6716 21.5 14.0858 20.9142C13.5 20.3284 13.5 19.3856 13.5 17.5V15.5Z" fill="transparent" stroke="currentColor" stroke-width="1.5" />
      <path d="M13.5 5.5C13.5 4.56812 13.5 4.10218 13.6522 3.73463C13.8552 3.24458 14.2446 2.85523 14.7346 2.65224C15.1022 2.5 15.5681 2.5 16.5 2.5H18.5C19.4319 2.5 19.8978 2.5 20.2654 2.65224C20.7554 2.85523 21.1448 3.24458 21.3478 3.73463C21.5 4.10218 21.5 4.56812 21.5 5.5C21.5 6.43188 21.5 6.89782 21.3478 7.26537C21.1448 7.75542 20.7554 8.14477 20.2654 8.34776C19.8978 8.5 19.4319 8.5 18.5 8.5H16.5C15.5681 8.5 15.1022 8.5 14.7346 8.34776C14.2446 8.14477 13.8552 7.75542 13.6522 7.26537C13.5 6.89782 13.5 6.43188 13.5 5.5Z" fill="transparent" stroke="currentColor" stroke-width="1.5" />
    </symbol>

    <symbol id="favourite" width="100%" height="100%" viewBox="0 0 24 24">
      <path d="M22 12C22 16.714 22 19.0711 20.5355 20.5355C19.0711 22 16.714 22 12 22C7.28595 22 4.92893 22 3.46447 20.5355C2 19.0711 2 16.714 2 12C2 7.28595 2 4.92893 3.46447 3.46447C4.92893 2 7.28595 2 12 2" fill="transparent" stroke="currentColor" stroke-width="1.5" stroke-linecap="round" />
      <path d="M2 12.5001L3.75159 10.9675C4.66286 10.1702 6.03628 10.2159 6.89249 11.0721L11.1822 15.3618C11.8694 16.0491 12.9512 16.1428 13.7464 15.5839L14.0446 15.3744C15.1888 14.5702 16.7369 14.6634 17.7765 15.599L21 18.5001" fill="transparent" stroke="currentColor" stroke-width="1.5" stroke-linecap="round" />
      <path d="M16.0603 8.56987L16.5522 8.00369L16.5522 8.00369L16.0603 8.56987ZM18 3.96789L17.4683 4.4968C17.609 4.63832 17.8004 4.71789 18 4.71789C18.1996 4.71789 18.391 4.63832 18.5317 4.4968L18 3.96789ZM19.9397 8.56988L19.4478 8.0037L19.4478 8.0037L19.9397 8.56988ZM18 9.60565L18 8.85565L18 8.85565L18 9.60565ZM16.5522 8.00369C16.0663 7.58156 15.5996 7.10931 15.2597 6.62977C14.9126 6.14017 14.75 5.7164 14.75 5.37542H13.25C13.25 6.16256 13.6077 6.89307 14.0359 7.49719C14.4712 8.11137 15.0347 8.67229 15.5685 9.13604L16.5522 8.00369ZM14.75 5.37542C14.75 4.44215 15.1697 3.97096 15.5841 3.81845C16.0103 3.66156 16.7133 3.73783 17.4683 4.4968L18.5317 3.43897C17.4867 2.38836 16.1897 1.99714 15.066 2.41078C13.9303 2.8288 13.25 3.96617 13.25 5.37542H14.75ZM20.4315 9.13605C20.9654 8.6723 21.5288 8.11138 21.9641 7.4972C22.3923 6.89307 22.75 6.16256 22.75 5.37541H21.25C21.25 5.71641 21.0874 6.14019 20.7403 6.62978C20.4004 7.10932 19.9337 7.58157 19.4478 8.0037L20.4315 9.13605ZM22.75 5.37541C22.75 3.96616 22.0697 2.82879 20.934 2.41078C19.8103 1.99714 18.5133 2.38836 17.4683 3.43897L18.5317 4.4968C19.2867 3.73783 19.9897 3.66156 20.4159 3.81845C20.8303 3.97096 21.25 4.44214 21.25 5.37541H22.75ZM15.5685 9.13604C16.3252 9.7935 16.929 10.3556 18 10.3556L18 8.85565C17.5762 8.85565 17.3851 8.72727 16.5522 8.00369L15.5685 9.13604ZM19.4478 8.0037C18.6149 8.72728 18.4239 8.85565 18 8.85565L18 10.3556C19.071 10.3557 19.6748 9.79351 20.4315 9.13605L19.4478 8.0037Z" fill="currentColor" />
    </symbol>

    <symbol id="arrow-left" width="100%" height="100%" viewBox="0 0 36 22">
      <path fill-rule="evenodd" clip-rule="evenodd" d="M6.20634 10.2144L36 10.2144V11.7858L6.22954 11.7858C7.21273 12.2796 8.06619 12.8925 8.81679 13.6259C10.8014 15.5653 11.9859 18.2733 13.0213 21.5709L11.7405 22C10.7204 18.7509 9.61984 16.3254 7.89146 14.6364C6.35374 13.1336 4.25353 12.1531 1.08996 11.7858H4.76837e-07V11.6864V10.2986V10.2144H0.957022C4.19548 9.85968 6.33298 8.87603 7.89204 7.35565C9.62004 5.67045 10.7204 3.24889 11.7405 -5.32861e-07L13.0213 0.42906C11.9859 3.72685 10.8012 6.4314 8.81633 8.36702C8.05982 9.1047 7.19897 9.71982 6.20634 10.2144Z" fill="currentColor" />
    </symbol>

    <symbol id="arrow-right" width="100%" height="100%" viewBox="0 0 36 22">
      <path fill-rule="evenodd" clip-rule="evenodd" d="M29.7937 11.7856H0V10.2142H29.7705C28.7873 9.72039 27.9338 9.10753 27.1832 8.37406C25.1986 6.43473 24.0141 3.7267 22.9787 0.429094L24.2595 0C25.2796 3.24911 26.3802 5.67464 28.1085 7.36363C29.6463 8.86635 31.7465 9.84692 34.91 10.2142H36V10.3136V11.7014V11.7856H35.043C31.8045 12.1403 29.667 13.124 28.108 14.6444C26.38 16.3295 25.2796 18.7511 24.2595 22L22.9787 21.5709C24.0141 18.2731 25.1988 15.5686 27.1837 13.633C27.9402 12.8953 28.801 12.2802 29.7937 11.7856Z" fill="currentColor" />
    </symbol>

    <symbol id="infinity" width="100%" height="100%" viewBox="0 0 24 24">
      <path d="M10.0005 8C9.16474 7.37209 8.12582 7 7 7C4.23858 7 2 9.23858 2 12C2 14.7614 4.23858 17 7 17C9.76142 17 10.5 15 12 12C13.5 9 14.2386 7 17 7C19.7614 7 22 9.23858 22 12C22 14.7614 19.7614 17 17 17C15.8743 17 14.8357 16.6278 14 16" fill="transparent" stroke="currentColor" stroke-width="1.5" stroke-linecap="round" />
    </symbol>

    <symbol id="bear" width="100%" height="100%" viewBox="0 0 24 24">
      <path d="M12 15.7501C15.3137 15.7501 18 13.0302 18 9.6751C18 6.31997 15.3137 3.6001 12 3.6001C8.68629 3.6001 6 6.31997 6 9.6751C6 13.0302 8.68629 15.7501 12 15.7501Z" fill="transparent" stroke="currentColor" stroke-width="1.5" stroke-miterlimit="10" stroke-linecap="round" stroke-linejoin="round" />
      <path d="M6 9C4.725 8.7 3.75 7.5 3.75 6C3.75 4.35 5.1 3 6.75 3C7.725 3 8.625 3.525 9.15 4.275" fill="transparent" stroke="currentColor" stroke-width="1.5" stroke-miterlimit="10" stroke-linecap="round" stroke-linejoin="round" />
      <path d="M14.8501 4.275C15.3751 3.525 16.2751 3 17.2501 3C18.9001 3 20.2501 4.35 20.2501 6.075C20.2501 7.5 19.2751 8.7 18.0001 9.075" fill="transparent" stroke="currentColor" stroke-width="1.5" stroke-miterlimit="10" stroke-linecap="round" stroke-linejoin="round" />
      <path d="M10.5 9V9.75" fill="transparent" stroke="currentColor" stroke-width="1.5" stroke-miterlimit="10" stroke-linecap="round" stroke-linejoin="round" />
      <path d="M13.5 9V9.75" fill="transparent" stroke="currentColor" stroke-width="1.5" stroke-miterlimit="10" stroke-linecap="round" stroke-linejoin="round" />
      <path d="M12 10.5V12" fill="transparent" stroke="currentColor" stroke-width="1.5" stroke-miterlimit="10" stroke-linecap="round" stroke-linejoin="round" />
      <path d="M8.54243 20.5525C9.36438 19.7343 9.05942 18.0953 7.86128 16.8917C6.66315 15.6881 5.02555 15.3757 4.2036 16.194C3.38165 17.0122 3.68661 18.6512 4.88474 19.8548C6.08288 21.0584 7.72048 21.3707 8.54243 20.5525Z" fill="transparent" stroke="currentColor" stroke-width="1.5" stroke-miterlimit="10" stroke-linecap="round" stroke-linejoin="round" />
      <path d="M19.1142 19.8578C20.3123 18.6543 20.6173 17.0153 19.7954 16.197C18.9734 15.3788 17.3358 15.6912 16.1377 16.8947C14.9395 18.0983 14.6346 19.7373 15.4565 20.5555C16.2785 21.3738 17.9161 21.0614 19.1142 19.8578Z" fill="transparent" stroke="currentColor" stroke-width="1.5" stroke-miterlimit="10" stroke-linecap="round" stroke-linejoin="round" />
      <path d="M6.75 16.05C6.75 15.975 6.75 15.825 6.75 15.75C6.75 14.925 6.975 14.1 7.275 13.425" fill="transparent" stroke="currentColor" stroke-width="1.5" stroke-miterlimit="10" stroke-linecap="round" stroke-linejoin="round" />
      <path d="M15.1501 19.95C14.2501 20.625 13.2001 21 12.0001 21C10.8001 21 9.7501 20.625 8.8501 19.95" fill="transparent" stroke="currentColor" stroke-width="1.5" stroke-miterlimit="10" stroke-linecap="round" stroke-linejoin="round" />
      <path d="M16.7251 13.425C17.1001 14.1 17.2501 14.925 17.2501 15.75C17.2501 15.825 17.2501 15.975 17.2501 16.05" fill="transparent" stroke="currentColor" stroke-width="1.5" stroke-miterlimit="10" stroke-linecap="round" stroke-linejoin="round" />
    </symbol>

    <symbol id="stars" width="100%" height="100%" viewBox="0 0 24 24">
      <path d="M9.99088 16.5L9.01504 16.9741C7.0341 17.5217 6.04363 17.7955 5.50972 17.2192C4.97582 16.6429 5.25206 15.5982 5.80455 13.5087L5.94749 12.9682C6.10449 12.3744 6.18299 12.0775 6.14352 11.7831C6.10404 11.4887 5.95106 11.2301 5.6451 10.713L5.36655 10.2421C4.28985 8.4221 3.75151 7.51211 4.11106 6.78804C4.4706 6.06397 5.48992 6.00535 7.52857 5.88812L8.05599 5.85779C8.63531 5.82448 8.92497 5.80782 9.17756 5.67305C9.43014 5.53828 9.61705 5.30066 9.99088 4.82542L10.3312 4.39274C11.6467 2.72034 12.3045 1.88413 13.0606 2.01293C13.8167 2.14173 14.1705 3.15023 14.8779 5.16723L15.0609 5.68905C15.262 6.26222 15.3625 6.5488 15.5581 6.75991C15.7537 6.97102 16.0222 7.08275 16.5592 7.30622L17.048 7.50967C18.9378 8.29605 19.8826 8.68925 19.9904 9.49292C20.0823 10.1786 19.513 10.7756 18.3493 11.7831" fill="transparent" stroke="currentColor" stroke-width="1.5" />
      <path d="M15.2516 10.689C14.265 9.50847 13.7716 8.91821 13.2045 9.00913C12.6375 9.10004 12.3722 9.81193 11.8416 11.2357L11.7043 11.604C11.5535 12.0086 11.4781 12.2109 11.3314 12.3599C11.1848 12.509 10.9834 12.5878 10.5806 12.7456L10.214 12.8892C8.79667 13.4443 8.08803 13.7218 8.00721 14.2891C7.92639 14.8564 8.52692 15.3378 9.72797 16.3004L10.0387 16.5495C10.38 16.8231 10.5507 16.9599 10.6494 17.1471C10.7482 17.3343 10.7639 17.5508 10.7954 17.9837L10.824 18.3779C10.9347 19.9015 10.9901 20.6633 11.5072 20.923C12.0244 21.1827 12.6608 20.7683 13.9337 19.9395L14.263 19.7251C14.6247 19.4896 14.8056 19.3718 15.0133 19.3385C15.2211 19.3052 15.4322 19.3601 15.8543 19.47L16.2387 19.57C17.7244 19.9565 18.4673 20.1498 18.8677 19.743C19.2681 19.3362 19.061 18.5987 18.6466 17.1238L18.5394 16.7422C18.4216 16.3231 18.3628 16.1135 18.3924 15.9057C18.422 15.6979 18.5367 15.5154 18.7662 15.1503L18.9751 14.818C19.7826 13.5332 20.1864 12.8909 19.9167 12.3798C19.647 11.8687 18.8826 11.8273 17.3536 11.7446L16.958 11.7231C16.5235 11.6996 16.3063 11.6879 16.1168 11.5927C15.9274 11.4976 15.7872 11.3299 15.5068 10.9944L15.2516 10.689Z" fill="transparent" stroke="currentColor" stroke-width="1.5" />
    </symbol>

    <symbol id="user" width="100%" height="100%" viewBox="0 0 24 24">
      <path fill-rule="evenodd" clip-rule="evenodd" d="M9 6.25C7.48122 6.25 6.25 7.48122 6.25 9C6.25 10.5188 7.48122 11.75 9 11.75C10.5188 11.75 11.75 10.5188 11.75 9C11.75 7.48122 10.5188 6.25 9 6.25ZM7.75 9C7.75 8.30965 8.30965 7.75 9 7.75C9.69036 7.75 10.25 8.30965 10.25 9C10.25 9.69036 9.69036 10.25 9 10.25C8.30965 10.25 7.75 9.69036 7.75 9Z" fill="currentColor" />
      <path fill-rule="evenodd" clip-rule="evenodd" d="M9 12.25C7.80424 12.25 6.68461 12.4907 5.83616 12.915C5.03258 13.3168 4.25 14.0106 4.25 15L4.24987 15.0625C4.24834 15.5728 4.24576 16.4322 5.06023 17.0218C5.43818 17.2953 5.9369 17.4698 6.55469 17.581C7.1782 17.6932 7.97721 17.75 9 17.75C10.0228 17.75 10.8218 17.6932 11.4453 17.581C12.0631 17.4698 12.5618 17.2953 12.9398 17.0218C13.7542 16.4322 13.7517 15.5728 13.7501 15.0625L13.75 15C13.75 14.0106 12.9674 13.3168 12.1638 12.915C11.3154 12.4907 10.1958 12.25 9 12.25ZM5.75 15C5.75 14.8848 5.86285 14.5787 6.50698 14.2566C7.10625 13.957 7.98662 13.75 9 13.75C10.0134 13.75 10.8937 13.957 11.493 14.2566C12.1371 14.5787 12.25 14.8848 12.25 15C12.25 15.6045 12.2115 15.6972 12.0602 15.8067C11.9382 15.895 11.6869 16.0134 11.1797 16.1047C10.6782 16.1949 9.97721 16.25 9 16.25C8.02279 16.25 7.3218 16.1949 6.82031 16.1047C6.31311 16.0134 6.06182 15.895 5.93977 15.8067C5.78849 15.6972 5.75 15.6045 5.75 15Z" fill="currentColor" />
      <path d="M19 12.75C19.4142 12.75 19.75 12.4142 19.75 12C19.75 11.5858 19.4142 11.25 19 11.25H15C14.5858 11.25 14.25 11.5858 14.25 12C14.25 12.4142 14.5858 12.75 15 12.75H19Z" fill="currentColor" />
      <path d="M19.75 9C19.75 9.41422 19.4142 9.75 19 9.75H14C13.5858 9.75 13.25 9.41422 13.25 9C13.25 8.58579 13.5858 8.25 14 8.25H19C19.4142 8.25 19.75 8.58579 19.75 9Z" fill="currentColor" />
      <path d="M19 15.75C19.4142 15.75 19.75 15.4142 19.75 15C19.75 14.5858 19.4142 14.25 19 14.25H16C15.5858 14.25 15.25 14.5858 15.25 15C15.25 15.4142 15.5858 15.75 16 15.75H19Z" fill="currentColor" />
      <path fill-rule="evenodd" clip-rule="evenodd" d="M9.94358 3.25H14.0564C15.8942 3.24998 17.3498 3.24997 18.489 3.40314C19.6614 3.56076 20.6104 3.89288 21.3588 4.64124C22.1071 5.38961 22.4392 6.33856 22.5969 7.51098C22.75 8.65018 22.75 10.1058 22.75 11.9435V12.0564C22.75 13.8942 22.75 15.3498 22.5969 16.489C22.4392 17.6614 22.1071 18.6104 21.3588 19.3588C20.6104 20.1071 19.6614 20.4392 18.489 20.5969C17.3498 20.75 15.8942 20.75 14.0565 20.75H9.94359C8.10585 20.75 6.65018 20.75 5.51098 20.5969C4.33856 20.4392 3.38961 20.1071 2.64124 19.3588C1.89288 18.6104 1.56076 17.6614 1.40314 16.489C1.24997 15.3498 1.24998 13.8942 1.25 12.0564V11.9436C1.24998 10.1058 1.24997 8.65019 1.40314 7.51098C1.56076 6.33856 1.89288 5.38961 2.64124 4.64124C3.38961 3.89288 4.33856 3.56076 5.51098 3.40314C6.65019 3.24997 8.10583 3.24998 9.94358 3.25ZM5.71085 4.88976C4.70476 5.02503 4.12511 5.27869 3.7019 5.7019C3.27869 6.12511 3.02503 6.70476 2.88976 7.71085C2.75159 8.73851 2.75 10.0932 2.75 12C2.75 13.9068 2.75159 15.2615 2.88976 16.2892C3.02503 17.2952 3.27869 17.8749 3.7019 18.2981C4.12511 18.7213 4.70476 18.975 5.71085 19.1102C6.73851 19.2484 8.09318 19.25 10 19.25H14C15.9068 19.25 17.2615 19.2484 18.2892 19.1102C19.2952 18.975 19.8749 18.7213 20.2981 18.2981C20.7213 17.8749 20.975 17.2952 21.1102 16.2892C21.2484 15.2615 21.25 13.9068 21.25 12C21.25 10.0932 21.2484 8.73851 21.1102 7.71085C20.975 6.70476 20.7213 6.12511 20.2981 5.7019C19.8749 5.27869 19.2952 5.02503 18.2892 4.88976C17.2615 4.75159 15.9068 4.75 14 4.75H10C8.09318 4.75 6.73851 4.75159 5.71085 4.88976Z" fill="currentColor" />
    </symbol>

    <symbol id="users" width="100%" height="100%" viewBox="0 0 24 24">
      <path fill-rule="evenodd" clip-rule="evenodd" d="M12 1.25C9.37665 1.25 7.25 3.37665 7.25 6C7.25 8.62335 9.37665 10.75 12 10.75C14.6234 10.75 16.75 8.62335 16.75 6C16.75 3.37665 14.6234 1.25 12 1.25ZM8.75 6C8.75 4.20507 10.2051 2.75 12 2.75C13.7949 2.75 15.25 4.20507 15.25 6C15.25 7.79493 13.7949 9.25 12 9.25C10.2051 9.25 8.75 7.79493 8.75 6Z" fill="currentColor" />
      <path d="M18 3.25C17.5858 3.25 17.25 3.58579 17.25 4C17.25 4.41421 17.5858 4.75 18 4.75C19.3765 4.75 20.25 5.65573 20.25 6.5C20.25 7.34427 19.3765 8.25 18 8.25C17.5858 8.25 17.25 8.58579 17.25 9C17.25 9.41421 17.5858 9.75 18 9.75C19.9372 9.75 21.75 8.41715 21.75 6.5C21.75 4.58285 19.9372 3.25 18 3.25Z" fill="currentColor" />
      <path d="M6.75 4C6.75 3.58579 6.41421 3.25 6 3.25C4.06278 3.25 2.25 4.58285 2.25 6.5C2.25 8.41715 4.06278 9.75 6 9.75C6.41421 9.75 6.75 9.41421 6.75 9C6.75 8.58579 6.41421 8.25 6 8.25C4.62351 8.25 3.75 7.34427 3.75 6.5C3.75 5.65573 4.62351 4.75 6 4.75C6.41421 4.75 6.75 4.41421 6.75 4Z" fill="currentColor" />
      <path fill-rule="evenodd" clip-rule="evenodd" d="M12 12.25C10.2157 12.25 8.56645 12.7308 7.34133 13.5475C6.12146 14.3608 5.25 15.5666 5.25 17C5.25 18.4334 6.12146 19.6392 7.34133 20.4525C8.56645 21.2692 10.2157 21.75 12 21.75C13.7843 21.75 15.4335 21.2692 16.6587 20.4525C17.8785 19.6392 18.75 18.4334 18.75 17C18.75 15.5666 17.8785 14.3608 16.6587 13.5475C15.4335 12.7308 13.7843 12.25 12 12.25ZM6.75 17C6.75 16.2242 7.22169 15.4301 8.17338 14.7956C9.11984 14.1646 10.4706 13.75 12 13.75C13.5294 13.75 14.8802 14.1646 15.8266 14.7956C16.7783 15.4301 17.25 16.2242 17.25 17C17.25 17.7758 16.7783 18.5699 15.8266 19.2044C14.8802 19.8354 13.5294 20.25 12 20.25C10.4706 20.25 9.11984 19.8354 8.17338 19.2044C7.22169 18.5699 6.75 17.7758 6.75 17Z" fill="currentColor" />
      <path d="M19.2674 13.8393C19.3561 13.4347 19.7561 13.1787 20.1607 13.2674C21.1225 13.4783 21.9893 13.8593 22.6328 14.3859C23.2758 14.912 23.75 15.6352 23.75 16.5C23.75 17.3648 23.2758 18.088 22.6328 18.6141C21.9893 19.1407 21.1225 19.5217 20.1607 19.7326C19.7561 19.8213 19.3561 19.5653 19.2674 19.1607C19.1787 18.7561 19.4347 18.3561 19.8393 18.2674C20.6317 18.0936 21.2649 17.7952 21.6829 17.4532C22.1014 17.1108 22.25 16.7763 22.25 16.5C22.25 16.2237 22.1014 15.8892 21.6829 15.5468C21.2649 15.2048 20.6317 14.9064 19.8393 14.7326C19.4347 14.6439 19.1787 14.2439 19.2674 13.8393Z" fill="currentColor" />
      <path d="M3.83935 13.2674C4.24395 13.1787 4.64387 13.4347 4.73259 13.8393C4.82132 14.2439 4.56525 14.6439 4.16065 14.7326C3.36829 14.9064 2.73505 15.2048 2.31712 15.5468C1.89863 15.8892 1.75 16.2237 1.75 16.5C1.75 16.7763 1.89863 17.1108 2.31712 17.4532C2.73505 17.7952 3.36829 18.0936 4.16065 18.2674C4.56525 18.3561 4.82132 18.7561 4.73259 19.1607C4.64387 19.5653 4.24395 19.8213 3.83935 19.7326C2.87746 19.5217 2.0107 19.1407 1.36719 18.6141C0.724248 18.088 0.25 17.3648 0.25 16.5C0.25 15.6352 0.724248 14.912 1.36719 14.3859C2.0107 13.8593 2.87746 13.4783 3.83935 13.2674Z" fill="currentColor" />
    </symbol>

  </defs>
</svg>