<?xml version="1.0"?>
<svg xmlns="http://www.w3.org/2000/svg" xmlns:xlink="http://www.w3.org/1999/xlink" version="1.1" xml:space="preserve">
  <defs>

    <symbol id="loader" width="100%" height="100%" viewBox="22 22 44 44">
      <circle cx="44" cy="44" r="20.2" fill="none" stroke="currentColor" stroke-width="4"></circle>
    </symbol>

    <symbol id="burger" width="100%" height="100%" viewBox="0 0 48 48">
      <path d="M41,14H7a2,2,0,0,1,0-4H41A2,2,0,0,1,41,14Z" fill="currentColor" />
      <path d="M41,26H7a2,2,0,0,1,0-4H41A2,2,0,0,1,41,26Z" fill="currentColor" />
      <path d="M41,38H7a2,2,0,0,1,0-4H41A2,2,0,0,1,41,38Z" fill="currentColor" />
    </symbol>

    <symbol id="close" width="100%" height="100%" viewBox="0 0 16 16">
      <path d="M1 15L15 1M1 1L15 15" stroke="currentColor" stroke-width="2" stroke-linecap="round" stroke-linejoin="round" />
    </symbol>

    <symbol id="chef" width="100%" height="100%" viewBox="0 0 40 40">
      <path d="M31.6667 29.9999H32.6667H31.6667ZM8.33337 24.3065H9.33337C9.33337 23.909 9.09797 23.5493 8.73375 23.3902L8.33337 24.3065ZM31.6667 24.3065L31.2663 23.3902C30.9021 23.5493 30.6667 23.909 30.6667 24.3065H31.6667ZM26.5 11.6666C26.5 12.2189 26.9478 12.6666 27.5 12.6666C28.0523 12.6666 28.5 12.2189 28.5 11.6666H26.5ZM11.5 11.6666C11.5 12.2189 11.9478 12.6666 12.5 12.6666C13.0523 12.6666 13.5 12.2189 13.5 11.6666H11.5ZM11.6667 7.33325C6.51205 7.33325 2.33337 11.5119 2.33337 16.6666H4.33337C4.33337 12.6165 7.61662 9.33325 11.6667 9.33325V7.33325ZM28.3334 9.33325C32.3835 9.33325 35.6667 12.6165 35.6667 16.6666H37.6667C37.6667 11.5119 33.488 7.33325 28.3334 7.33325V9.33325ZM25 35.6666H15V37.6666H25V35.6666ZM15 35.6666C13.4004 35.6666 12.3013 35.6645 11.4757 35.5535C10.6789 35.4463 10.2882 35.2546 10.0168 34.9832L8.60258 36.3974C9.3075 37.1023 10.1906 37.3987 11.2092 37.5356C12.1991 37.6687 13.457 37.6666 15 37.6666V35.6666ZM7.33337 29.9999C7.33337 31.543 7.33125 32.8009 7.46433 33.7907C7.60128 34.8093 7.89765 35.6925 8.60258 36.3974L10.0168 34.9832C9.74541 34.7118 9.55363 34.3211 9.4465 33.5242C9.3355 32.6987 9.33337 31.5995 9.33337 29.9999H7.33337ZM30.6667 29.9999C30.6667 31.5995 30.6646 32.6987 30.5536 33.5242C30.4465 34.3211 30.2547 34.7118 29.9833 34.9832L31.3975 36.3974C32.1024 35.6925 32.3988 34.8093 32.5358 33.7907C32.6688 32.8009 32.6667 31.543 32.6667 29.9999H30.6667ZM25 37.6666C26.5431 37.6666 27.801 37.6687 28.7909 37.5356C29.8095 37.3987 30.6926 37.1023 31.3975 36.3974L29.9833 34.9832C29.7119 35.2546 29.3212 35.4463 28.5244 35.5535C27.6988 35.6645 26.5997 35.6666 25 35.6666V37.6666ZM11.6667 9.33325C12.0351 9.33325 12.3966 9.36034 12.7494 9.41249L13.0419 7.43398C12.5926 7.36757 12.1333 7.33325 11.6667 7.33325V9.33325ZM20 2.33325C16.2595 2.33325 13.0858 4.74873 11.9486 8.10208L13.8427 8.74439C14.713 6.17796 17.1424 4.33325 20 4.33325V2.33325ZM11.9486 8.10208C11.6575 8.96056 11.5 9.87955 11.5 10.8333H13.5C13.5 10.1008 13.6208 9.39869 13.8427 8.74439L11.9486 8.10208ZM28.3334 7.33325C27.8667 7.33325 27.4075 7.36757 26.9582 7.43398L27.2507 9.41249C27.6035 9.36034 27.9649 9.33325 28.3334 9.33325V7.33325ZM20 4.33325C22.8577 4.33325 25.2871 6.17796 26.1574 8.74439L28.0515 8.10208C26.9143 4.74873 23.7405 2.33325 20 2.33325V4.33325ZM26.1574 8.74439C26.3793 9.39869 26.5 10.1008 26.5 10.8333H28.5C28.5 9.87955 28.3426 8.96055 28.0515 8.10208L26.1574 8.74439ZM9.33337 29.9999V24.3065H7.33337V29.9999H9.33337ZM8.73375 23.3902C6.14166 22.2576 4.33337 19.6722 4.33337 16.6666H2.33337C2.33337 20.4954 4.63874 23.7835 7.933 25.2229L8.73375 23.3902ZM30.6667 24.3065L30.6667 29.9999H32.6667L32.6667 24.3065L30.6667 24.3065ZM35.6667 16.6666C35.6667 19.6722 33.8584 22.2576 31.2663 23.3902L32.0671 25.2229C35.3613 23.7835 37.6667 20.4954 37.6667 16.6666H35.6667ZM26.5 10.8333V11.6666H28.5V10.8333H26.5ZM11.5 10.8333V11.6666H13.5V10.8333H11.5Z" fill="currentColor" />
      <path d="M18.4048 22.7818L17.8132 23.5881H17.8132L18.4048 22.7818ZM20 16.6581L19.3084 17.3804C19.6951 17.7507 20.3049 17.7507 20.6916 17.3804L20 16.6581ZM21.5952 22.7818L21.0037 21.9756L21.5952 22.7818ZM20 23.5518L20 22.5518H20L20 23.5518ZM18.9963 21.9756C18.2927 21.4593 17.5085 20.8083 16.91 20.1163C16.2854 19.394 16 18.7839 16 18.3337H14C14 19.5243 14.6853 20.6014 15.3973 21.4245C16.1353 22.2779 17.0535 23.0306 17.8132 23.5881L18.9963 21.9756ZM16 18.3337C16 17.2868 16.4876 16.7611 16.9871 16.586C17.5146 16.4011 18.3827 16.494 19.3084 17.3804L20.6916 15.9358C19.3674 14.6679 17.7355 14.2043 16.3255 14.6986C14.8874 15.2027 14 16.592 14 18.3337H16ZM22.1868 23.5881C22.9465 23.0306 23.8647 22.2779 24.6027 21.4246C25.3147 20.6014 26 19.5243 26 18.3337H24C24 18.7839 23.7146 19.394 23.09 20.1163C22.4915 20.8083 21.7073 21.4593 21.0037 21.9756L22.1868 23.5881ZM26 18.3337C26 16.5919 25.1126 15.2027 23.6745 14.6986C22.2645 14.2043 20.6326 14.6679 19.3084 15.9358L20.6916 17.3804C21.6173 16.494 22.4854 16.4011 23.0129 16.586C23.5124 16.7611 24 17.2868 24 18.3337H26ZM17.8132 23.5881C18.4446 24.0514 19.0663 24.5518 20 24.5518L20 22.5518C19.9128 22.5518 19.848 22.5389 19.7268 22.4749C19.5636 22.3888 19.3679 22.2482 18.9963 21.9756L17.8132 23.5881ZM21.0037 21.9756C20.6321 22.2482 20.4364 22.3888 20.2732 22.4749C20.152 22.5389 20.0872 22.5518 20 22.5518L20 24.5518C20.9337 24.5518 21.5554 24.0514 22.1868 23.5881L21.0037 21.9756Z" fill="currentColor" />
      <path d="M8.33337 30H31.6667" fill="transparent" stroke="currentColor" stroke-width="2" stroke-linecap="round" stroke-linejoin="round" />
    </symbol>

    <symbol id="water" width="100%" height="100%" viewBox="0 0 40 40">
      <path fill-rule="evenodd" clip-rule="evenodd" d="M7.63579 10.0175C8.78708 8.32473 11.1918 8.38789 12.4057 9.8492C14.0423 11.8195 16.3496 13.75 19.9999 13.75C23.7129 13.75 25.9848 12.2002 27.5309 10.2564C28.7332 8.74481 31.2957 8.50196 32.5558 10.2951C33.5865 11.7618 34.7132 12.93 36.9371 13.4228C37.6111 13.5722 38.0364 14.2396 37.887 14.9136C37.7376 15.5876 37.0702 16.0129 36.3962 15.8636C33.3278 15.1836 31.7318 13.4705 30.5104 11.7326C30.4294 11.6173 30.2847 11.5322 30.0663 11.5361C29.8396 11.5401 29.6216 11.6439 29.4874 11.8127C27.5286 14.2753 24.5684 16.25 19.9999 16.25C15.2952 16.25 12.3511 13.6961 10.4826 11.4466L11.4441 10.6479L10.4826 11.4466C10.3738 11.3157 10.2122 11.2467 10.0478 11.2501C9.88883 11.2533 9.77321 11.3202 9.70301 11.4235C8.45939 13.252 6.86395 15.1411 3.60373 15.8636C2.92972 16.0129 2.26225 15.5876 2.11288 14.9136C1.96352 14.2396 2.38882 13.5722 3.06282 13.4228C5.41601 12.9013 6.54311 11.6242 7.63579 10.0175ZM7.63579 18.3509C8.78708 16.6581 11.1918 16.7212 12.4057 18.1825C14.0423 20.1528 16.3496 22.0833 19.9999 22.0833C23.7129 22.0833 25.9848 20.5335 27.5309 18.5898C28.7332 17.0781 31.2957 16.8353 32.5558 18.6285C33.5865 20.0951 34.7132 21.2633 36.9371 21.7561C37.6111 21.9055 38.0364 22.573 37.887 23.247C37.7376 23.921 37.0702 24.3463 36.3962 24.1969C33.3278 23.5169 31.7318 21.8038 30.5104 20.0659C30.4294 19.9506 30.2847 19.8655 30.0663 19.8694C29.8396 19.8735 29.6216 19.9773 29.4874 20.146C27.5286 22.6087 24.5684 24.5833 19.9999 24.5833C15.2952 24.5833 12.3511 22.0295 10.4826 19.7799C10.3738 19.649 10.2122 19.5801 10.0478 19.5834C9.88883 19.5866 9.77321 19.6536 9.70301 19.7568C8.45939 21.5854 6.86395 23.4744 3.60373 24.1969C2.92972 24.3463 2.26225 23.921 2.11288 23.247C1.96352 22.573 2.38882 21.9055 3.06282 21.7561C5.41601 21.2346 6.54311 19.9575 7.63579 18.3509ZM7.63579 26.6842C8.78708 24.9914 11.1918 25.0546 12.4057 26.5159C14.0423 28.4862 16.3496 30.4166 19.9999 30.4166C23.7129 30.4166 25.9848 28.8668 27.5309 26.9231C28.7332 25.4115 31.2957 25.1686 32.5558 26.9618C33.5865 28.4284 34.7132 29.5966 36.9371 30.0895C37.6111 30.2388 38.0364 30.9063 37.887 31.5803C37.7376 32.2543 37.0702 32.6796 36.3962 32.5302C33.3278 31.8503 31.7318 30.1371 30.5104 28.3992C30.4294 28.284 30.2847 28.1988 30.0663 28.2027C29.8396 28.2068 29.6216 28.3106 29.4874 28.4793C27.5286 30.942 24.5684 32.9166 19.9999 32.9166C15.2952 32.9166 12.3511 30.3628 10.4826 28.1133C10.3738 27.9824 10.2122 27.9134 10.0478 27.9167C9.88883 27.9199 9.77321 27.9869 9.70301 28.0901C8.45939 29.9187 6.86395 31.8077 3.60373 32.5302C2.92972 32.6796 2.26225 32.2543 2.11288 31.5803C1.96352 30.9063 2.38882 30.2388 3.06282 30.0895C5.41601 29.568 6.54311 28.2908 7.63579 26.6842Z" fill="currentColor" />
    </symbol>

    <symbol id="moon" width="100%" height="100%" viewBox="0 0 40 40">
      <path d="M13.3333 36.6667H26.6666" fill="currentColor" stroke="currentColor" stroke-width="2" stroke-linecap="round" stroke-linejoin="round" />
      <path d="M8.33325 31.6667H31.6666" fill="currentColor" stroke="currentColor" stroke-width="2" stroke-linecap="round" stroke-linejoin="round" />
      <path d="M3.33325 26.6667H36.6666" fill="currentColor" stroke="currentColor" stroke-width="2" stroke-linecap="round" stroke-linejoin="round" />
      <path d="M35.112 19.7613L34.2561 19.2442V19.2442L35.112 19.7613ZM20.2385 4.88785L19.7213 4.03197L19.7213 4.03197L20.2385 4.88785ZM4.33325 19.9999C4.33325 11.3475 11.3475 4.33325 19.9999 4.33325V2.33325C10.2429 2.33325 2.33325 10.2429 2.33325 19.9999H4.33325ZM25.8333 23.9999C20.4025 23.9999 15.9999 19.5974 15.9999 14.1666H13.9999C13.9999 20.702 19.2979 25.9999 25.8333 25.9999V23.9999ZM34.2561 19.2442C32.5325 22.0966 29.4047 23.9999 25.8333 23.9999V25.9999C30.1337 25.9999 33.8972 23.7053 35.9679 20.2785L34.2561 19.2442ZM15.9999 14.1666C15.9999 10.5952 17.9033 7.46734 20.7557 5.74373L19.7213 4.03197C16.2945 6.10267 13.9999 9.86618 13.9999 14.1666H15.9999ZM35.6666 19.9999C35.6666 22.2299 35.2013 24.3486 34.3634 26.2662L36.1961 27.067C37.1422 24.9015 37.6666 22.5106 37.6666 19.9999H35.6666ZM5.63642 26.2662C4.79856 24.3486 4.33325 22.2299 4.33325 19.9999H2.33325C2.33325 22.5106 2.8576 24.9015 3.80371 27.067L5.63642 26.2662ZM19.9999 4.33325C19.9691 4.33325 19.9213 4.32695 19.8667 4.30366C19.8124 4.28054 19.7675 4.24756 19.7342 4.21286C19.6711 4.14722 19.6649 4.09484 19.6649 4.09483C19.6646 4.09242 19.664 4.09445 19.6656 4.09064C19.6694 4.08175 19.6852 4.05381 19.7213 4.03197L20.7557 5.74373C21.4925 5.2985 21.7349 4.47853 21.6469 3.82716C21.5558 3.15272 21.0325 2.33325 19.9999 2.33325V4.33325ZM35.9679 20.2785C35.946 20.3146 35.9181 20.3305 35.9092 20.3342C35.9054 20.3358 35.9074 20.3353 35.905 20.3349C35.905 20.3349 35.8526 20.3287 35.787 20.2656C35.7523 20.2323 35.7193 20.1875 35.6962 20.1332C35.6729 20.0785 35.6666 20.0308 35.6666 19.9999H37.6666C37.6666 18.9673 36.8471 18.444 36.1727 18.3529C35.5213 18.265 34.7013 18.5073 34.2561 19.2442L35.9679 20.2785Z" fill="currentColor" />
      <path d="M33.1669 3.84523C32.8987 3.16259 31.9361 3.16259 31.6679 3.84523L30.9506 5.67071C30.8687 5.87912 30.7043 6.0441 30.4967 6.1263L28.6779 6.84625C27.9978 7.11548 27.9978 8.08159 28.6779 8.35082L30.4967 9.07078C30.7043 9.15298 30.8687 9.31795 30.9506 9.52637L31.6679 11.3518C31.9361 12.0345 32.8987 12.0345 33.1669 11.3518L33.8842 9.52637C33.9661 9.31795 34.1305 9.15298 34.3381 9.07078L36.1569 8.35082C36.837 8.08159 36.837 7.11548 36.1569 6.84625L34.3381 6.1263C34.1305 6.0441 33.9661 5.87912 33.8842 5.67071L33.1669 3.84523Z" fill="transparent" stroke="currentColor" stroke-width="2" />
      <path d="M26.7213 13.5494C26.4531 12.8667 25.4906 12.8667 25.2223 13.5494L24.9608 14.2149C24.8789 14.4234 24.7145 14.5883 24.5069 14.6705L23.8438 14.933C23.1636 15.2023 23.1636 16.1684 23.8438 16.4376L24.5069 16.7001C24.7145 16.7823 24.8789 16.9473 24.9608 17.1557L25.2223 17.8213C25.4906 18.5039 26.4531 18.5039 26.7213 17.8213L26.9829 17.1557C27.0648 16.9473 27.2291 16.7823 27.4368 16.7001L28.0999 16.4376C28.78 16.1684 28.78 15.2023 28.0999 14.933L27.4368 14.6705C27.2291 14.5883 27.0648 14.4234 26.9829 14.2149L26.7213 13.5494Z" fill="transparent" stroke="currentColor" stroke-width="2" />
    </symbol>

    <symbol id="glass" width="100%" height="100%" viewBox="0 0 40 40">
      <path d="M20.9999 25.4761C20.9999 24.9238 20.5522 24.4761 19.9999 24.4761C19.4476 24.4761 18.9999 24.9238 18.9999 25.4761H20.9999ZM26.2499 35.9999C26.8022 35.9999 27.2499 35.5522 27.2499 34.9999C27.2499 34.4476 26.8022 33.9999 26.2499 33.9999V35.9999ZM13.7499 33.9999C13.1976 33.9999 12.7499 34.4476 12.7499 34.9999C12.7499 35.5522 13.1976 35.9999 13.7499 35.9999V33.9999ZM18.9999 25.4761V34.9999H20.9999V25.4761H18.9999ZM26.2499 33.9999H19.9999V35.9999H26.2499V33.9999ZM19.9999 33.9999H13.7499V35.9999H19.9999V33.9999ZM11.4911 6H28.5087V4H11.4911V6ZM30.6666 8.15789V13.3333H32.6666V8.15789H30.6666ZM9.33325 13.3333V8.1579H7.33325V13.3333H9.33325ZM19.9999 24C14.1089 24 9.33325 19.2244 9.33325 13.3333H7.33325C7.33325 20.3289 13.0043 26 19.9999 26V24ZM30.6666 13.3333C30.6666 19.2244 25.891 24 19.9999 24V26C26.9955 26 32.6666 20.3289 32.6666 13.3333H30.6666ZM28.5087 6C29.7005 6 30.6666 6.96612 30.6666 8.15789H32.6666C32.6666 5.86155 30.805 4 28.5087 4V6ZM11.4911 4C9.1948 4 7.33325 5.86155 7.33325 8.1579H9.33325C9.33325 6.96612 10.2994 6 11.4911 6V4Z" fill="currentColor" />
      <path d="M9.16675 15C9.16675 15 12.6353 13.4788 15.0001 13.3334C19.1088 13.0807 20.8914 16.9194 25.0001 16.6667C27.3648 16.5213 30.8334 15 30.8334 15" fill="transparent" stroke="currentColor" stroke-width="2" stroke-linecap="round" />
    </symbol>

    <symbol id="chair" width="100%" height="100%" viewBox="0 0 40 40">
      <path d="M28.3332 35V26.6666M11.6665 35V26.6666" fill="transparent" stroke="currentColor" stroke-width="2" stroke-linecap="round" />
      <path d="M25.8333 20H14.1666C11.4167 20 10.0418 20 9.18754 20.9763C8.71107 21.5209 8.50035 22.2505 8.40716 23.3347C8.27809 24.8363 8.21355 25.5872 8.70889 26.1269C9.20424 26.6667 10.025 26.6667 11.6666 26.6667H28.3333C29.9749 26.6667 30.7956 26.6667 31.291 26.1269C31.7863 25.5872 31.7218 24.8363 31.5927 23.3347C31.4995 22.2505 31.2888 21.5209 30.8123 20.9763C29.9581 20 28.5831 20 25.8333 20Z" fill="transparent" stroke="currentColor" stroke-width="2" />
      <path d="M11.6667 13.3333C11.6667 10.2179 11.6667 8.66025 12.3366 7.5C12.7755 6.7399 13.4067 6.10871 14.1667 5.66987C15.327 5 16.8847 5 20.0001 5C23.1155 5 24.6732 5 25.8334 5.66987C26.5935 6.10871 27.2247 6.7399 27.6635 7.5C28.3334 8.66025 28.3334 10.2179 28.3334 13.3333V20H11.6667V13.3333Z" fill="transparent" stroke="currentColor" stroke-width="2" />
    </symbol>

    <symbol id="heart" width="100%" height="100%" viewBox="0 0 40 40">
      <path d="M14.9363 31.5181L15.5553 30.7327L14.9363 31.5181ZM20 9.16766L19.2796 9.86113C19.4681 10.057 19.7282 10.1677 20 10.1677C20.2719 10.1677 20.532 10.057 20.7205 9.86113L20 9.16766ZM25.0638 31.5181L25.6829 32.3034L25.0638 31.5181ZM15.5553 30.7327C13.0441 28.7531 10.2542 26.7881 8.04359 24.2989C5.86728 21.8483 4.33337 18.9688 4.33337 15.2284H2.33337C2.33337 19.593 4.14899 22.9254 6.54816 25.6269C8.91306 28.2899 11.9246 30.4173 14.3172 32.3034L15.5553 30.7327ZM4.33337 15.2284C4.33337 11.5501 6.41221 8.45254 9.27004 7.14622C12.0648 5.86872 15.7856 6.23106 19.2796 9.86113L20.7205 8.47419C16.7147 4.31232 12.1022 3.6526 8.43858 5.32724C4.838 6.97308 2.33337 10.8019 2.33337 15.2284H4.33337ZM14.3172 32.3034C15.1732 32.9782 16.0762 33.6848 16.9875 34.2173C17.8985 34.7496 18.9128 35.1666 20 35.1666V33.1666C19.4206 33.1666 18.7682 32.9414 17.9966 32.4905C17.2253 32.0398 16.4298 31.4221 15.5553 30.7327L14.3172 32.3034ZM25.6829 32.3034C28.0755 30.4173 31.087 28.2899 33.4519 25.6269C35.8511 22.9254 37.6667 19.593 37.6667 15.2284H35.6667C35.6667 18.9688 34.1328 21.8483 31.9565 24.2989C29.7459 26.7881 26.956 28.7531 24.4447 30.7327L25.6829 32.3034ZM37.6667 15.2284C37.6667 10.8019 35.1621 6.97308 31.5615 5.32724C27.8979 3.6526 23.2853 4.31232 19.2796 8.47419L20.7205 9.86113C24.2145 6.23106 27.9353 5.86872 30.73 7.14622C33.5879 8.45254 35.6667 11.5501 35.6667 15.2284H37.6667ZM24.4447 30.7327C23.5703 31.4221 22.7748 32.0398 22.0035 32.4905C21.2319 32.9414 20.5795 33.1666 20 33.1666V35.1666C21.0872 35.1666 22.1016 34.7496 23.0125 34.2173C23.9238 33.6848 24.8269 32.9782 25.6829 32.3034L24.4447 30.7327Z" fill="currentColor" />
    </symbol>

    <symbol id="confetti" width="100%" height="100%" viewBox="0 0 40 40">
      <path d="M6.6867 26.2696L9.50253 17.8222C10.7792 13.9921 11.4176 12.0771 12.928 11.7205C14.4384 11.3639 15.8658 12.7913 18.7206 15.6461L24.3522 21.2777C27.207 24.1325 28.6344 25.5599 28.2778 27.0703C27.9212 28.5808 26.0062 29.2191 22.1761 30.4958L13.7287 33.3116C9.11963 34.848 6.81512 35.6161 5.59866 34.3997C4.38219 33.1832 5.15036 30.8787 6.6867 26.2696Z" fill="transparent" stroke="currentColor" stroke-width="2" stroke-linecap="round" />
      <path d="M20.392 30.5771C20.392 30.5771 19.1284 26.7752 19.1284 24.2589C19.1284 21.7427 20.392 17.9408 20.392 17.9408M13.4421 32.4725C13.4421 32.4725 12.3749 27.886 12.1785 24.8908C11.854 19.942 13.4421 12.2545 13.4421 12.2545" fill="transparent" stroke="currentColor" stroke-width="2" stroke-linecap="round" />
      <path d="M24.1821 16.6768L24.4221 15.4769C24.6644 14.2654 25.5373 13.2766 26.7094 12.8859C27.8815 12.4952 28.7543 11.5064 28.9966 10.2949L29.2366 9.09503" fill="transparent" stroke="currentColor" stroke-width="2" stroke-linecap="round" />
      <path d="M29.2817 20.4226L29.6365 20.6274C30.7317 21.2597 32.1086 21.1203 33.0548 20.2812C33.9116 19.5214 35.1319 19.3287 36.1812 19.7875L36.667 19.9999" fill="transparent" stroke="currentColor" stroke-width="2" stroke-linecap="round" />
      <path d="M17.5586 5C16.9961 5.9201 17.1371 7.10574 17.8996 7.86829L18.0627 8.03142C18.718 8.68669 18.9596 9.64932 18.6915 10.5364" fill="transparent" stroke="currentColor" stroke-width="2" stroke-linecap="round" />
      <path d="M22.6015 7.3272C22.9366 6.9921 23.1042 6.82455 23.2979 6.76314C23.4618 6.7112 23.6377 6.7112 23.8016 6.76314C23.9953 6.82455 24.1628 6.9921 24.4979 7.3272C24.833 7.66229 25.0006 7.82984 25.062 8.02357C25.1139 8.18743 25.1139 8.36335 25.062 8.52721C25.0006 8.72094 24.833 8.88849 24.4979 9.22358C24.1628 9.55867 23.9953 9.72622 23.8016 9.78763C23.6377 9.83958 23.4618 9.83958 23.2979 9.78763C23.1042 9.72622 22.9366 9.55867 22.6015 9.22358C22.2665 8.88849 22.0989 8.72094 22.0375 8.52721C21.9855 8.36335 21.9855 8.18743 22.0375 8.02357C22.0989 7.82984 22.2665 7.66229 22.6015 7.3272Z" fill="currentColor" />
      <path d="M32.4471 12.4471C32.8561 12.0381 33.0606 11.8336 33.2913 11.7447C33.5613 11.6407 33.8602 11.6407 34.1302 11.7447C34.3609 11.8336 34.5654 12.0381 34.9744 12.4471C35.3834 12.856 35.5878 13.0605 35.6767 13.2912C35.7807 13.5612 35.7807 13.8602 35.6767 14.1301C35.5878 14.3608 35.3834 14.5653 34.9744 14.9743C34.5654 15.3833 34.3609 15.5878 34.1302 15.6767C33.8602 15.7807 33.5613 15.7807 33.2913 15.6767C33.0606 15.5878 32.8561 15.3833 32.4471 14.9743C32.0381 14.5653 31.8336 14.3608 31.7448 14.1301C31.6407 13.8602 31.6407 13.5612 31.7448 13.2912C31.8336 13.0605 32.0381 12.856 32.4471 12.4471Z" fill="currentColor" />
      <path d="M11.5455 6.56799C11.8946 6.21887 12.4607 6.21887 12.8098 6.56799C13.1589 6.9171 13.1589 7.48313 12.8098 7.83224C12.4607 8.18136 11.8946 8.18136 11.5455 7.83224C11.1964 7.48313 11.1964 6.9171 11.5455 6.56799Z" fill="currentColor" />
      <path d="M31.7638 25.5223C32.1129 25.1732 32.6789 25.1732 33.028 25.5223C33.3772 25.8714 33.3772 26.4374 33.028 26.7865C32.6789 27.1356 32.1129 27.1356 31.7638 26.7865C31.4147 26.4374 31.4147 25.8714 31.7638 25.5223Z" fill="currentColor" />
      <path d="M29.1666 16.2357C29.5157 15.8866 30.0817 15.8866 30.4308 16.2357C30.78 16.5849 30.78 17.1509 30.4308 17.5C30.0817 17.8491 29.5157 17.8491 29.1666 17.5C28.8175 17.1509 28.8175 16.5849 29.1666 16.2357Z" fill="currentColor" />
    </symbol>

    <symbol id="wine" width="100%" height="100%" viewBox="0 0 40 40">
      <path d="M20 24.2857L34.1937 9.77303C35.9374 7.99014 34.6665 5 32.1651 5H7.83491C5.33347 5 4.06265 7.99014 5.80635 9.77304L20 24.2857ZM20 24.2857V35M20 35H27.0732M20 35H12.9268M12.4553 16.25H27.5447" fill="transparent" stroke="currentColor" stroke-width="2" stroke-linecap="round" />
    </symbol>

    <symbol id="phone" width="100%" height="100%" viewBox="0 0 20 20">
      <path d="M12.9635 12.1231L12.5839 12.5227C12.5839 12.5227 11.6818 13.4725 9.21927 10.8799C6.75676 8.28736 7.65892 7.33756 7.65892 7.33756L7.89793 7.08593C8.48673 6.46604 8.54223 5.4708 8.02853 4.74425L6.97771 3.25801C6.3419 2.35875 5.1133 2.23996 4.38454 3.0072L3.07654 4.38428C2.71519 4.76471 2.47304 5.25788 2.50241 5.80495C2.57753 7.20455 3.1756 10.2159 6.5128 13.7293C10.0518 17.4552 13.3724 17.6033 14.7302 17.4692C15.1597 17.4269 15.5333 17.1952 15.8343 16.8783L17.0181 15.632C17.8171 14.7908 17.5918 13.3485 16.5694 12.76L14.9774 11.8436C14.306 11.4572 13.4881 11.5707 12.9635 12.1231Z" fill="currentColor" />
      <path d="M11.0497 1.56673C11.1048 1.22599 11.4269 0.994843 11.7677 1.05001C11.7888 1.05404 11.8566 1.06673 11.8922 1.07465C11.9633 1.09048 12.0625 1.11486 12.1862 1.15089C12.4335 1.22292 12.779 1.34159 13.1937 1.53171C14.0239 1.91233 15.1287 2.57817 16.2752 3.72467C17.4217 4.87117 18.0876 5.97602 18.4682 6.80625C18.6583 7.22093 18.777 7.56643 18.849 7.81375C18.885 7.93742 18.9094 8.03661 18.9253 8.10772C18.9332 8.14327 18.939 8.17182 18.943 8.19291L18.9478 8.21891C19.003 8.55965 18.7739 8.89508 18.4332 8.95025C18.0934 9.00525 17.7733 8.77523 17.7168 8.43608C17.7151 8.42698 17.7103 8.40251 17.7051 8.37944C17.6949 8.33329 17.6771 8.2601 17.6489 8.16331C17.5925 7.96969 17.4945 7.68192 17.3319 7.32719C17.0071 6.6186 16.4229 5.64011 15.3913 4.60856C14.3598 3.577 13.3813 2.99284 12.6727 2.66798C12.318 2.50535 12.0302 2.40741 11.8366 2.35101C11.7398 2.32282 11.6181 2.2949 11.572 2.28462C11.2328 2.2281 10.9946 1.9065 11.0497 1.56673Z" fill="currentColor" />
      <path fill-rule="evenodd" clip-rule="evenodd" d="M11.2382 4.44128C11.333 4.10939 11.679 3.9172 12.0108 4.01203L11.8391 4.61298C12.0108 4.01203 12.0108 4.01203 12.0108 4.01203L12.012 4.01238L12.0133 4.01274L12.0161 4.01356L12.0226 4.01548L12.0391 4.02062C12.0516 4.02464 12.0673 4.02987 12.086 4.03651C12.1234 4.04979 12.1729 4.06868 12.2336 4.09468C12.355 4.14671 12.5209 4.22706 12.7246 4.34765C13.1325 4.58906 13.6893 4.99004 14.3435 5.64418C14.9976 6.29833 15.3986 6.85515 15.64 7.26303C15.7606 7.46679 15.841 7.63268 15.893 7.75408C15.919 7.81476 15.9379 7.86422 15.9512 7.90165C15.9578 7.92036 15.963 7.93605 15.967 7.94861L15.9722 7.9651L15.9741 7.97156L15.9749 7.97434L15.9753 7.97562C15.9753 7.97562 15.9756 7.97682 15.3747 8.14852L15.9756 7.97682C16.0705 8.30871 15.8783 8.65464 15.5464 8.74947C15.2173 8.84349 14.8744 8.65536 14.7762 8.32864L14.7731 8.31966C14.7687 8.30714 14.7595 8.28249 14.7441 8.24648C14.7132 8.17454 14.6573 8.05684 14.5643 7.89968C14.3785 7.58573 14.0429 7.11136 13.4596 6.52807C12.8763 5.94477 12.4019 5.60918 12.088 5.42338C11.9308 5.33036 11.8131 5.27445 11.7412 5.24361C11.7052 5.22818 11.6805 5.21899 11.668 5.21455L11.659 5.21147C11.3323 5.11323 11.1442 4.77036 11.2382 4.44128Z" fill="currentColor" />
    </symbol>

    <symbol id="email" width="100%" height="100%" viewBox="0 0 20 20">
      <path d="M18.3334 5C18.3334 6.38071 17.2141 7.5 15.8334 7.5C14.4527 7.5 13.3334 6.38071 13.3334 5C13.3334 3.61929 14.4527 2.5 15.8334 2.5C17.2141 2.5 18.3334 3.61929 18.3334 5Z" fill="currentColor" />
      <path fill-rule="evenodd" clip-rule="evenodd" d="M11.6667 4.16667H8.33341C5.19072 4.16667 3.61937 4.16667 2.64306 5.14298C1.66675 6.11929 1.66675 7.69064 1.66675 10.8333C1.66675 13.976 1.66675 15.5474 2.64306 16.5237C3.61937 17.5 5.19072 17.5 8.33341 17.5H11.6667C14.8094 17.5 16.3808 17.5 17.3571 16.5237C18.3334 15.5474 18.3334 13.976 18.3334 10.8333C18.3334 9.6222 18.3334 8.64443 18.2775 7.84416C17.6211 8.40875 16.7671 8.75 15.8334 8.75C15.4345 8.75 15.0502 8.68772 14.6895 8.57234L13.5698 9.50547C12.8312 10.121 12.2325 10.6199 11.7041 10.9598C11.1537 11.3138 10.6176 11.5374 10.0001 11.5374C9.38252 11.5374 8.84648 11.3138 8.29606 10.9598C7.76768 10.6199 7.16901 10.121 6.43038 9.50548L4.59997 7.98014C4.33479 7.75916 4.29897 7.36506 4.51994 7.09988C4.74092 6.83471 5.13502 6.79888 5.4002 7.01986L7.19928 8.51909C7.97674 9.16698 8.51652 9.61535 8.97223 9.90844C9.41337 10.1922 9.71252 10.2874 10.0001 10.2874C10.2876 10.2874 10.5868 10.1922 11.0279 9.90844C11.4836 9.61535 12.0234 9.16698 12.8009 8.51909L13.5004 7.93613C12.637 7.24911 12.0834 6.1892 12.0834 5C12.0834 4.71365 12.1155 4.43479 12.1763 4.16683C12.0112 4.16667 11.8414 4.16667 11.6667 4.16667Z" fill="currentColor" />
    </symbol>

  </defs>
</svg>