<?xml version="1.0" standalone="no"?>
<!DOCTYPE svg PUBLIC "-//W3C//DTD SVG 20010904//EN"
 "http://www.w3.org/TR/2001/REC-SVG-20010904/DTD/svg10.dtd">
<svg version="1.0" xmlns="http://www.w3.org/2000/svg"
 width="260.000000pt" height="260.000000pt" viewBox="0 0 260.000000 260.000000"
 preserveAspectRatio="xMidYMid meet">
<metadata>
Created by potrace 1.14, written by Peter Selinger 2001-2017
</metadata>
<g transform="translate(0.000000,260.000000) scale(0.100000,-0.100000)"
fill="#000000" stroke="none">
<path d="M0 1300 l0 -1300 1300 0 1300 0 0 1300 0 1300 -1300 0 -1300 0 0
-1300z m1410 1070 c119 -14 225 -42 312 -84 81 -40 75 -40 -20 -1 -138 58
-203 69 -397 69 -165 1 -188 -1 -275 -26 -53 -14 -122 -38 -154 -52 -33 -15
-61 -25 -63 -23 -7 8 135 67 207 86 137 37 254 47 390 31z m-642 -1022 l2
-398 245 0 245 0 0 -50 0 -50 -300 0 -300 0 0 451 0 450 53 -3 52 -3 3 -397z
m1232 347 l0 -45 -247 -2 -248 -3 0 -155 0 -155 233 -3 232 -2 0 -45 0 -45
-232 -2 -233 -3 -3 -192 -2 -193 -50 0 -50 0 0 445 0 445 300 0 300 0 0 -45z
m-1104 -1379 c141 -58 215 -71 404 -71 158 0 184 3 270 27 53 14 122 38 154
52 33 15 61 25 63 23 7 -8 -134 -66 -206 -86 -231 -64 -505 -43 -703 53 -81
40 -75 41 18 2z"/>
</g>
</svg>
